<svg width="159" height="52" viewBox="0 0 159 52" fill="none" xmlns="http://www.w3.org/2000/svg">
<rect x="-28" y="8.99316" width="128.855" height="43.0068" rx="10" fill="url(#paint0_linear)" fill-opacity="0.7"/>
<g clip-path="url(#clip0)">
<path d="M138.057 41.8887H152.125C152.499 41.8887 152.803 42.2278 152.803 42.6463C152.803 43.0647 152.499 43.4039 152.125 43.4039H138.057C137.683 43.4039 137.379 43.0647 137.379 42.6463C137.379 42.2278 137.683 41.8887 138.057 41.8887Z" fill="#3378C7"/>
<path d="M146.963 38.0508H150.274C150.649 38.0508 150.952 38.3899 150.952 38.8084C150.952 39.2268 150.649 39.566 150.274 39.566H146.963C146.588 39.566 146.285 39.2268 146.285 38.8084C146.285 38.3899 146.588 38.0508 146.963 38.0508Z" fill="#3378C7"/>
<path d="M136.206 38.0508H143.71C144.085 38.0508 144.388 38.3899 144.388 38.8084C144.388 39.2268 144.085 39.566 143.71 39.566H136.206C135.832 39.566 135.528 39.2268 135.528 38.8084C135.528 38.3899 135.832 38.0508 136.206 38.0508Z" fill="#3378C7"/>
<path d="M138.427 34.4141H152.496C152.87 34.4141 153.173 34.7532 153.173 35.1717C153.173 35.5901 152.87 35.9293 152.496 35.9293H138.427C138.053 35.9293 137.75 35.5901 137.75 35.1717C137.75 34.7532 138.053 34.4141 138.427 34.4141Z" fill="#3378C7"/>
<path d="M115.879 41.1725H116.721C117.234 41.1725 117.651 41.6388 117.651 42.212V44.0917C117.651 44.6649 117.234 45.1312 116.721 45.1312H115.879C115.695 45.1312 115.545 45.2973 115.545 45.5014C115.545 45.7054 115.695 45.8716 115.879 45.8716H123.794V45.2546C123.794 44.5583 124.3 43.992 124.923 43.992H126.189C126.144 43.842 126.111 43.6861 126.093 43.5253L125.058 34.0336C124.933 32.8876 125.564 31.5986 126.495 31.0989L130.908 28.7289L130.307 27.2909C130.148 26.9118 130.295 26.4609 130.634 26.2837C130.973 26.1066 131.376 26.2702 131.535 26.6493L132.935 29.9995L133.071 29.9285C133.01 29.7735 132.976 29.6025 132.976 29.4226V28.647C132.976 27.9508 133.483 27.3844 134.105 27.3844H135.889C135.877 27.3316 135.867 27.2779 135.861 27.2225L135.685 25.6131C135.65 25.2913 135.726 24.9736 135.898 24.7131L135.457 21.4603L131.571 21.3288C130.455 21.2911 129.574 20.2465 129.607 19C129.641 17.7704 130.53 16.8073 131.631 16.8073C131.652 16.8073 131.672 16.8076 131.693 16.8084L134.164 16.8919C133.271 15.807 131.815 15.4371 130.556 16.0925C129.801 16.4849 129.23 17.1814 128.946 18.0539C128.662 18.9244 128.699 19.866 129.05 20.7051L130.268 23.6188C130.427 23.9979 130.28 24.4489 129.941 24.626C129.602 24.8029 129.199 24.6395 129.04 24.2605L127.823 21.3468C127.318 20.1404 127.265 18.7869 127.672 17.5358C127.697 17.4607 127.723 17.3866 127.75 17.3134C126.056 16.9904 124.573 15.7556 123.833 13.9854C123.757 13.8021 123.69 13.6157 123.631 13.4273C123.408 13.1965 123.267 12.8675 123.267 12.5017V10.9412C122.928 10.7232 122.699 10.3147 122.699 9.84668V8.13138C122.699 7.54561 123.058 7.05317 123.542 6.91125C123.57 4.13593 125.601 1.8877 128.094 1.8877H128.852C131.345 1.8877 133.375 4.13603 133.403 6.91125C133.888 7.05317 134.247 7.54561 134.247 8.13138V9.84668C134.247 9.88698 134.245 9.92668 134.241 9.96607C134.422 9.78112 134.655 9.66506 134.903 9.64364C135.197 9.6193 135.486 9.72718 135.707 9.94163C137.469 11.6544 139.28 13.4645 140.371 15.1138C141.763 17.2178 141.915 19.0189 140.823 20.4671C140.482 20.9193 140.055 21.2361 139.562 21.4097L139.984 24.2653C140.149 24.4567 140.261 24.7062 140.291 24.9866L140.467 26.5963C140.495 26.849 140.454 27.0993 140.352 27.3215C140.487 27.5746 140.565 27.8698 140.565 28.1852V28.2774H152.773V27.0495C152.773 26.3532 153.279 25.7869 153.902 25.7869H154.683C155.306 25.7869 155.813 26.3532 155.813 27.0495V28.2774H157.578C157.952 28.2774 158.255 28.6166 158.255 29.035C158.255 29.4535 157.952 29.7926 157.578 29.7926H155.813V31.0204C155.813 31.7167 155.306 32.2831 154.683 32.2831H153.902C153.279 32.2831 152.773 31.7167 152.773 31.0204V29.7924H141.091C141.129 30.1433 141.095 30.502 140.983 30.8448C140.797 31.4163 140.424 31.8718 139.933 32.1272L133.34 35.557C132.931 35.7696 132.61 36.4191 132.665 36.9195L133.455 44.0192C133.458 44.0449 133.46 44.0704 133.462 44.096C133.862 44.2903 134.143 44.7362 134.143 45.2545V45.8715H144.605C145.118 45.8715 145.535 46.3378 145.535 46.911V48.7907C145.535 49.3639 145.118 49.8302 144.605 49.8302H123.022C122.648 49.8302 122.344 49.4911 122.344 49.0726C122.344 48.6542 122.648 48.315 123.022 48.315H144.18V47.3867H115.879C114.948 47.3867 114.19 46.5409 114.19 45.5013C114.19 44.4617 114.948 43.6159 115.879 43.6159H116.296V42.6876H115.879C114.487 42.6876 113.355 43.9498 113.355 45.5013C113.355 47.0527 114.487 48.315 115.879 48.315H119.95C120.324 48.315 120.628 48.6542 120.628 49.0726C120.628 49.4911 120.324 49.8302 119.95 49.8302H115.879C113.74 49.8302 112 47.8882 112 45.5013C112 43.1144 113.74 41.1725 115.879 41.1725ZM154.128 30.7678H154.457V27.302H154.128V30.7678ZM135.84 29.1249V28.8997H134.331V29.1701H134.331H135.842C135.842 29.1549 135.84 29.1402 135.84 29.1249ZM131.652 18.323L131.631 18.3227C131.267 18.3227 130.973 18.6405 130.962 19.0461C130.951 19.4573 131.242 19.8021 131.611 19.8146L136.063 19.9651C136.39 19.9761 136.663 20.247 136.712 20.6088L137.19 24.1364L138.564 23.9497L137.99 20.0629C137.861 19.1887 137.164 18.5093 136.37 18.4824L131.652 18.323ZM139.095 26.5285L138.974 25.4204L137.058 25.6807L137.179 26.7888L139.095 26.5285ZM137.195 28.313V29.125C137.195 29.2254 137.269 29.3073 137.36 29.3073H139.045C139.136 29.3073 139.21 29.2254 139.21 29.125V28.1851C139.21 28.1297 139.187 28.0807 139.151 28.0472L137.195 28.313ZM131.214 13.9637L131.949 12.9892H131.214V13.9637ZM128.565 15.8815C128.928 15.436 129.365 15.066 129.859 14.7881V12.9891H128.467C128.232 13.4469 127.763 13.7644 127.292 13.7644H125.262C125.959 15.0429 127.209 15.8543 128.565 15.8815ZM124.622 12.2492H127.27C127.277 12.245 127.286 12.2386 127.292 12.2326L127.694 11.1093H124.622V12.2492ZM128.852 3.40288H128.094C126.361 3.40288 124.946 4.94878 124.898 6.86883H132.047C131.999 4.94868 130.585 3.40288 128.852 3.40288ZM132.892 8.38391H124.054V9.59415H132.892V8.38391ZM132.892 11.1094H129.154L129.024 11.4739H132.892V11.1094ZM139.337 19.8832C139.508 19.7914 139.658 19.6618 139.787 19.4904C140.197 18.9464 140.591 17.9941 139.282 16.0148C138.311 14.5472 136.655 12.8759 135.013 11.2758L132.702 14.3419C134.01 14.62 135.19 15.5431 135.84 16.9488L136.411 16.9681C137.841 17.0163 139.094 18.2407 139.327 19.8159L139.337 19.8832ZM132.769 34.1833L139.269 30.8017C139.195 30.8139 139.121 30.8222 139.045 30.8222H137.36C137.148 30.8222 136.946 30.7732 136.763 30.6853H134.829L129.608 33.4012C129.199 33.614 128.878 34.2633 128.933 34.7636L129.959 43.9918H132.086L131.321 37.1065C131.193 35.9564 131.829 34.6723 132.769 34.1833ZM127.676 45.8716H132.788V45.5071H127.676V45.8716ZM126.403 33.8502L127.439 43.3418C127.466 43.5979 127.609 43.8356 127.801 43.992H128.594L127.588 34.9507C127.46 33.8005 128.096 32.5164 129.036 32.0275L131.706 30.6387L131.482 30.1017L127.081 32.4648C126.671 32.685 126.348 33.3453 126.403 33.8502ZM125.149 45.8716H126.321V45.5071H125.149V45.8716Z" fill="#3378C7"/>
<line x1="117.396" y1="49.6328" x2="49.5551" y2="49.6328" stroke="#3378C7"/>
</g>
<path d="M18.6965 26.8301L16.7084 28.5806H19.3574H77.2656C78.3421 28.5806 79 29.3276 79 30C79 30.6724 78.3421 31.4194 77.2656 31.4194H19.3574H16.7085L18.6965 33.1699L28.2889 41.6163C28.909 42.1624 28.9105 42.9923 28.2946 43.5399L28.2945 43.5399C27.6071 44.1511 26.4443 44.1539 25.7527 43.545L11.4748 30.9729C11.4706 30.9691 11.4662 30.9652 11.4615 30.961C10.8447 30.4142 10.8468 29.5819 11.4639 29.0371L11.4647 29.0364C11.4677 29.0338 11.4705 29.0312 11.4733 29.0287L25.753 16.455C25.753 16.455 25.753 16.455 25.753 16.455C26.4446 15.846 27.6074 15.8489 28.2948 16.4601L28.2948 16.4601C28.9108 17.0077 28.9093 17.8376 28.2892 18.3837C28.2892 18.3837 28.2892 18.3837 28.2892 18.3837L18.6965 26.8301ZM11.5096 28.9941C11.5075 28.9962 11.5039 28.9998 11.4989 29.0047C11.5021 29.0016 11.5047 28.999 11.5067 28.9971L11.5096 28.9941Z" stroke="#3378C7" stroke-width="2"/>
<defs>
<linearGradient id="paint0_linear" x1="100.855" y1="30.4966" x2="-28" y2="30.4966" gradientUnits="userSpaceOnUse">
<stop stop-color="#3378C7" stop-opacity="0.8"/>
<stop offset="0.990779" stop-color="#3378C7" stop-opacity="0"/>
</linearGradient>
<clipPath id="clip0">
<rect width="46.2555" height="51.7184" transform="matrix(-1 0 0 1 158.255 0)" fill="white"/>
</clipPath>
</defs>
</svg>
