<svg width="51" height="50" viewBox="0 0 51 50" fill="none" xmlns="http://www.w3.org/2000/svg">
<g clip-path="url(#clip0)">
<path d="M37.5814 20.9129C37.234 20.2867 36.6085 19.8691 35.9831 19.8691H25.6291H14.6496C13.9547 19.8691 13.3292 20.2867 13.0513 20.9129C12.0089 23.0006 9.64624 28.4283 9.64624 33.5082C9.64624 33.9257 9.9242 34.2041 10.3411 34.2041H25.6291H40.2915C40.7085 34.2041 40.9865 33.9257 40.9865 33.5082C40.9865 28.4283 38.6238 23.0006 37.5814 20.9129ZM24.9341 32.8123H11.036C11.2445 28.0804 13.5377 23.0006 14.3021 21.5392C14.3716 21.4001 14.5106 21.2609 14.6496 21.2609H24.9341V32.8123ZM26.324 32.8123V21.2609H35.9136C36.0526 21.2609 36.1916 21.3305 36.3306 21.5392C37.095 23.0006 39.3882 28.0804 39.5966 32.8123H26.324Z" fill="#4D4242"/>
<path d="M47.9354 0.523709C47.866 0.175774 47.449 -0.102574 47.1016 0.0366L3.25309 11.0313C2.90563 11.1009 2.62767 11.5184 2.76665 11.8664C2.76665 12.1447 3.04461 12.3535 3.39207 12.3535C3.46156 12.3535 3.53105 12.3535 3.53105 12.3535L22.7104 7.55199C22.5019 7.96951 22.4324 8.45662 22.4324 8.94373C22.4324 10.4746 23.5443 11.7968 24.9341 12.0751V14.6499H15.8309C14.3716 14.6499 13.1902 15.7632 13.0512 17.2246H12.4258C11.6614 17.2246 10.9665 17.6421 10.6191 18.4076C9.43774 20.9127 6.58863 27.4539 6.58863 33.5775C6.58863 39.7012 9.36824 46.2423 10.6191 48.8171C10.9665 49.5129 11.6614 50 12.4258 50H38.1373C38.9017 50 39.5966 49.5825 39.944 48.8171C41.1949 46.2423 43.9745 39.6316 43.9745 33.5079C43.9745 27.3843 41.1949 20.8431 39.944 18.338C39.5966 17.6421 38.9017 17.155 38.1373 17.155H37.0949C36.956 15.6937 35.7746 14.5803 34.3153 14.5803H26.3239V12.0056C27.7832 11.6576 28.8256 10.4051 28.8256 8.87414C28.8256 7.83034 28.3391 6.85612 27.5053 6.29943L47.449 1.35875C47.7965 1.28916 48.0744 0.871643 47.9354 0.523709ZM36.4695 18.6163H38.1373C38.3458 18.6163 38.5542 18.7555 38.6932 18.9642C39.6661 20.9127 42.5847 27.5234 42.5847 33.5079C42.5847 39.4924 39.5966 46.2423 38.6932 48.1212C38.5542 48.3299 38.3458 48.4691 38.1373 48.4691H12.4258C12.2174 48.4691 12.0089 48.3299 11.8699 48.1212C10.9665 46.2423 7.97844 39.4924 7.97844 33.5079C7.97844 27.5234 10.9665 20.8431 11.8699 18.9642C12.0089 18.7555 12.2174 18.6163 12.4258 18.6163H13.6767H36.4695ZM34.3848 16.0416C35.0797 16.0416 35.7051 16.5287 35.7746 17.2246H14.441C14.58 16.5287 15.136 16.0416 15.8309 16.0416H34.3848ZM25.629 10.6834C24.6561 10.6834 23.8223 9.91795 23.8223 8.87414C23.8223 7.89992 24.6561 7.06488 25.629 7.06488C26.6714 7.06488 27.4358 7.89992 27.4358 8.87414C27.4358 9.91795 26.6019 10.6834 25.629 10.6834Z" fill="#4D4242"/>
</g>
<defs>
<clipPath id="clip0">
<rect x="0.38562" width="49.9307" height="50" fill="white"/>
</clipPath>
</defs>
</svg>
