<svg width="35" height="35" viewBox="0 0 35 35" fill="none" xmlns="http://www.w3.org/2000/svg">
<path d="M26.0817 7.38875C27.429 7.38875 28.5114 6.30875 28.5114 4.96633V2.42728C28.5114 1.08244 27.429 0 26.0817 0C24.7429 0 23.6569 1.08244 23.6569 2.42728V4.96633C23.6569 6.30875 24.7429 7.38875 26.0817 7.38875Z" fill="#030104"/>
<path d="M34.7109 4.20331H29.8186V5.43274C29.8186 7.47492 28.1628 9.13198 26.1243 9.13198C24.0833 9.13198 22.4299 7.47492 22.4299 5.43274V4.20331H12.5713V5.43274C12.5713 7.47492 10.9179 9.13198 8.87694 9.13198C6.83356 9.13198 5.18257 7.47492 5.18257 5.43274V4.20331L0.251465 4.14014V34.9987L2.71641 34.9999H32.2836L34.7485 34.9914L34.7109 4.20331ZM32.2836 32.5447H2.71641V12.8276H32.2836V32.5447Z" fill="#030104"/>
<path d="M8.83321 7.38875C10.1781 7.38875 11.2629 6.30875 11.2629 4.96633V2.42728C11.2629 1.08244 10.1781 0 8.83321 0C7.49565 0 6.40836 1.08244 6.40836 2.42728V4.96633C6.40836 6.30875 7.49565 7.38875 8.83321 7.38875Z" fill="#030104"/>
<path d="M9.37017 26.1413C9.87798 26.4183 11.0309 26.8848 12.1911 26.8848C13.6623 26.8848 14.4045 26.179 14.4045 25.2824C14.4045 24.0749 13.2067 23.5318 11.9651 23.5318H10.8098V21.4981H11.9226C12.8762 21.4981 14.0704 21.1252 14.0704 20.0998C14.0704 19.3709 13.4885 18.8315 12.281 18.8315C11.2945 18.8315 10.2522 19.2616 9.76378 19.5617L9.1843 17.5122C9.91807 17.0457 11.348 16.5986 12.9358 16.5986C15.5101 16.5986 16.9363 17.9568 16.9363 19.6139C16.9363 20.9029 16.2147 21.9282 14.7204 22.4287V22.4688C16.1746 22.7288 17.3518 23.8307 17.3518 25.4306C17.3518 27.5554 15.4675 29.1214 12.3927 29.1214C10.8244 29.1214 9.50502 28.7132 8.79797 28.2807L9.37017 26.1413Z" fill="#030104"/>
<path d="M22.8356 19.3199H22.8004L20.4885 20.4182L20.0233 18.2922L23.2463 16.804H25.5764V28.9185H22.8356V19.3199Z" fill="#030104"/>
</svg>
