<svg width="26" height="45" viewBox="0 0 26 45" fill="none" xmlns="http://www.w3.org/2000/svg">
<path d="M15.8707 45H8.817C7.63882 45 6.68041 44.0208 6.68041 42.8172V26.5629H2.56516C1.38697 26.5629 0.428558 25.5834 0.428558 24.38V17.415C0.428558 16.2114 1.38697 15.2322 2.56516 15.2322H6.68041V11.7444C6.68041 8.28609 7.74333 5.34382 9.75391 3.23616C11.7736 1.11889 14.596 0 17.9162 0L23.2957 0.00892635C24.4718 0.0109863 25.4286 0.990143 25.4286 2.19177V8.6586C25.4286 9.86229 24.4705 10.8414 23.2926 10.8414L19.6707 10.8428C18.5661 10.8428 18.2848 11.0691 18.2247 11.1384C18.1255 11.2534 18.0076 11.5786 18.0076 12.4763V15.2319H23.0204C23.3978 15.2319 23.7634 15.327 24.0776 15.5062C24.7555 15.8931 25.1769 16.6247 25.1769 17.4154L25.1742 24.3804C25.1742 25.5834 24.2158 26.5625 23.0376 26.5625H18.0076V42.8172C18.0076 44.0208 17.0488 45 15.8707 45V45ZM9.2626 42.3619H15.4251V25.3819C15.4251 24.5781 16.0652 23.9244 16.8516 23.9244H22.592L22.5943 17.8703H16.8513C16.0649 17.8703 15.4251 17.2166 15.4251 16.4129V12.4763C15.4251 11.4457 15.5276 10.2736 16.289 9.39262C17.2091 8.32764 18.6592 8.20473 19.67 8.20473L22.8464 8.20335V2.64633L17.9142 2.63809C12.5784 2.63809 9.2626 6.12762 9.2626 11.7444V16.4129C9.2626 17.2163 8.62277 17.8703 7.83641 17.8703H3.01076V23.9244H7.83641C8.62277 23.9244 9.2626 24.5781 9.2626 25.3819V42.3619ZM23.2906 2.64702H23.291H23.2906Z" fill="#3378C7"/>
</svg>
