<svg width="51" height="50" viewBox="0 0 51 50" fill="none" xmlns="http://www.w3.org/2000/svg">
<path d="M46.8866 40.7234C46.8878 40.6904 46.8884 40.6576 46.8884 40.625C46.8874 39.7965 46.5583 39.0022 45.9733 38.4163C45.3883 37.8305 44.5951 37.5009 43.7677 37.5V23.0469L46.5763 20.9375C46.6738 20.8642 46.7529 20.7691 46.8071 20.6597C46.8613 20.5503 46.8891 20.4298 46.8883 20.3077C46.8876 20.1856 46.8582 20.0653 46.8027 19.9566C46.7472 19.8479 46.6669 19.7538 46.5685 19.6817L39.8669 14.7775V6.25C40.0738 6.25 40.2722 6.16769 40.4185 6.02118C40.5648 5.87466 40.647 5.67595 40.647 5.46875V2.34375C40.647 2.13655 40.5648 1.93784 40.4185 1.79132C40.2722 1.64481 40.0738 1.5625 39.8669 1.5625H32.0652C31.8583 1.5625 31.6598 1.64481 31.5135 1.79132C31.3672 1.93784 31.285 2.13655 31.285 2.34375V5.46875C31.285 5.67595 31.3672 5.87466 31.5135 6.02118C31.6598 6.16769 31.8583 6.25 32.0652 6.25V9.06846L26.2842 4.83799C26.1506 4.74022 25.9894 4.68752 25.8239 4.68752C25.6584 4.68752 25.4972 4.74022 25.3636 4.83799L5.07924 19.6817C4.98079 19.7538 4.90058 19.8479 4.84503 19.9566C4.78949 20.0653 4.76016 20.1856 4.7594 20.3077C4.75864 20.4298 4.78648 20.5503 4.84067 20.6597C4.89486 20.7691 4.97389 20.8642 5.07144 20.9375L7.88004 23.0469V37.5C7.05267 37.5009 6.25946 37.8305 5.67442 38.4163C5.08938 39.0022 4.7603 39.7965 4.75937 40.625C4.75937 40.6576 4.75996 40.6904 4.76113 40.7234C4.02513 40.9129 3.38347 41.3649 2.95655 41.9944C2.52962 42.624 2.34677 43.3879 2.4423 44.1428C2.53784 44.8978 2.90518 45.5919 3.47542 46.0949C4.04566 46.5979 4.7796 46.8753 5.53954 46.875H46.1082C46.8681 46.8753 47.6021 46.5979 48.1723 46.0949C48.7425 45.5919 49.1099 44.8978 49.2054 44.1428C49.301 43.3879 49.1181 42.624 48.6912 41.9944C48.2643 41.3649 47.6226 40.9129 46.8866 40.7234ZM32.8454 3.125H39.0867V4.6875H32.8454V3.125ZM33.6255 10.1562V6.25H38.3065V13.6357L33.5517 10.1562H33.6255ZM25.8239 6.43633L44.797 20.3207L42.9804 21.6851L26.2828 9.52441C26.1494 9.42727 25.9888 9.37494 25.8239 9.37494C25.659 9.37494 25.4983 9.42727 25.3649 9.52441L8.66732 21.6851L6.85071 20.3207L25.8239 6.43633ZM3.97921 43.75C3.97964 43.3398 4.14097 42.9461 4.42844 42.6539C4.71592 42.3616 5.10653 42.1941 5.51613 42.1875H5.51799C5.55787 42.1931 5.59776 42.1978 5.63843 42.2005C5.76771 42.2087 5.89699 42.1845 6.0146 42.1301C6.13221 42.0757 6.23445 41.9929 6.31209 41.889C6.38973 41.7852 6.44032 41.6636 6.45931 41.5353C6.47829 41.407 6.46507 41.2759 6.42083 41.154C6.35627 40.985 6.32203 40.8059 6.31971 40.625C6.3202 40.2108 6.48475 39.8136 6.77726 39.5207C7.06977 39.2278 7.46636 39.063 7.88004 39.0625V45.3125H5.53954C5.12586 45.312 4.72927 45.1472 4.43676 44.8543C4.14425 44.5614 3.9797 44.1642 3.97921 43.75ZM37.5264 45.3125H28.1644V28.125H37.5264V45.3125ZM39.0867 45.3125V27.3438C39.0867 27.1365 39.0045 26.9378 38.8582 26.7913C38.7119 26.6448 38.5134 26.5625 38.3065 26.5625H27.3842C27.1773 26.5625 26.9788 26.6448 26.8325 26.7913C26.6862 26.9378 26.604 27.1365 26.604 27.3438V45.3125H9.44037V23.0541L25.8239 11.1223L42.2074 23.0541V45.3125H39.0867ZM46.1082 45.3125H43.7677V39.0625C44.1814 39.063 44.578 39.2278 44.8705 39.5207C45.163 39.8136 45.3275 40.2108 45.328 40.625C45.3257 40.8061 45.2915 40.9853 45.2269 41.1544C45.1827 41.2763 45.1694 41.4074 45.1884 41.5357C45.2074 41.664 45.258 41.7856 45.3356 41.8894C45.4133 41.9933 45.5155 42.0761 45.6331 42.1305C45.7507 42.1849 45.88 42.209 46.0093 42.2009C46.05 42.1982 46.0899 42.1935 46.1297 42.1879H46.1316C46.5454 42.191 46.9411 42.3586 47.2315 42.6538C47.5219 42.949 47.6833 43.3477 47.6802 43.7621C47.6771 44.1765 47.5098 44.5727 47.2149 44.8635C46.9201 45.1544 46.522 45.316 46.1082 45.3129V45.3125Z" fill="#4D4242"/>
<path d="M22.7032 26.5625H13.3412C13.1343 26.5625 12.9359 26.6448 12.7895 26.7913C12.6432 26.9378 12.561 27.1365 12.561 27.3438V38.2812C12.561 38.4885 12.6432 38.6872 12.7895 38.8337C12.9359 38.9802 13.1343 39.0625 13.3412 39.0625H22.7032C22.9101 39.0625 23.1086 38.9802 23.2549 38.8337C23.4012 38.6872 23.4834 38.4885 23.4834 38.2812V27.3438C23.4834 27.1365 23.4012 26.9378 23.2549 26.7913C23.1086 26.6448 22.9101 26.5625 22.7032 26.5625ZM21.923 32.0312H18.8024V28.125H21.923V32.0312ZM17.242 28.125V32.0312H14.1214V28.125H17.242ZM14.1214 33.5938H17.242V37.5H14.1214V33.5938ZM18.8024 37.5V33.5938H21.923V37.5H18.8024Z" fill="#4D4242"/>
<path d="M31.2257 36.2365C31.3906 35.8379 31.2016 35.3809 30.8035 35.2158C30.4054 35.0506 29.949 35.2399 29.7842 35.6386C29.6193 36.0372 29.8083 36.4942 30.2064 36.6593C30.6045 36.8244 31.0608 36.6351 31.2257 36.2365Z" fill="#4D4242"/>
</svg>
