<svg width="70" height="70" viewBox="0 0 70 70" fill="none" xmlns="http://www.w3.org/2000/svg">
<path d="M66.4956 60.3643C66.4973 60.3133 66.4982 60.2627 66.4982 60.2126C66.4968 58.9354 66.0047 57.7111 65.1299 56.808C64.2551 55.9049 63.069 55.397 61.8318 55.3955V33.1169L66.0316 29.8654C66.1774 29.7525 66.2956 29.6058 66.3766 29.4372C66.4577 29.2686 66.4993 29.0828 66.4982 28.8946C66.497 28.7063 66.4532 28.521 66.3701 28.3535C66.2871 28.1859 66.1671 28.0408 66.0199 27.9297L55.9988 20.3702V7.22551C56.3082 7.22551 56.6049 7.09863 56.8237 6.87279C57.0425 6.64695 57.1654 6.34064 57.1654 6.02126V1.20425C57.1654 0.884864 57.0425 0.578558 56.8237 0.352717C56.6049 0.126876 56.3082 0 55.9988 0H44.3328C44.0234 0 43.7267 0.126876 43.5079 0.352717C43.2891 0.578558 43.1662 0.884864 43.1662 1.20425V6.02126C43.1662 6.34064 43.2891 6.64695 43.5079 6.87279C43.7267 7.09863 44.0234 7.22551 44.3328 7.22551V11.57L35.6883 5.04897C35.4885 4.89826 35.2475 4.81704 35 4.81704C34.7525 4.81704 34.5115 4.89826 34.3117 5.04897L3.9801 27.9297C3.83289 28.0408 3.71294 28.1859 3.62988 28.3535C3.54683 28.521 3.50297 28.7063 3.50184 28.8946C3.5007 29.0828 3.54232 29.2686 3.62335 29.4372C3.70438 29.6058 3.82257 29.7525 3.96843 29.8654L8.16819 33.1169V55.3955C6.93101 55.397 5.7449 55.9049 4.87008 56.808C3.99527 57.7111 3.50318 58.9354 3.50179 60.2126C3.50179 60.2627 3.50267 60.3133 3.50442 60.3643C2.40386 60.6564 1.44438 61.353 0.805988 62.3234C0.167599 63.2938 -0.105821 64.4714 0.0370294 65.6351C0.179879 66.7988 0.729181 67.8687 1.58187 68.6441C2.43456 69.4195 3.53204 69.8471 4.66839 69.8466H65.3316C66.468 69.8471 67.5654 69.4195 68.4181 68.6441C69.2708 67.8687 69.8201 66.7988 69.963 65.6351C70.1058 64.4714 69.8324 63.2938 69.194 62.3234C68.5556 61.353 67.5961 60.6564 66.4956 60.3643ZM45.4994 2.4085H54.8322V4.817H45.4994V2.4085ZM46.666 13.2468V7.22551H53.6656V18.6102L46.5556 13.2468H46.666ZM35 7.51272L63.371 28.9147L60.6546 31.0177L35.6862 12.2728C35.4868 12.1231 35.2466 12.0424 35 12.0424C34.7534 12.0424 34.5132 12.1231 34.3137 12.2728L9.34544 31.0177L6.62901 28.9147L35 7.51272ZM2.33519 65.0296C2.33584 64.3972 2.57708 63.7904 3.00695 63.3399C3.43681 62.8894 4.0209 62.6313 4.63339 62.6211H4.63616C4.69581 62.6296 4.75545 62.637 4.81626 62.6411C5.00958 62.6537 5.2029 62.6164 5.37877 62.5326C5.55463 62.4487 5.70751 62.321 5.82361 62.161C5.9397 62.0009 6.01536 61.8135 6.04375 61.6157C6.07213 61.4179 6.05236 61.2159 5.98621 61.028C5.88967 60.7675 5.83847 60.4914 5.83499 60.2126C5.83573 59.574 6.08178 58.9618 6.51918 58.5103C6.95658 58.0588 7.54961 57.8048 8.16819 57.8041V67.4381H4.66839C4.04981 67.4373 3.45678 67.1833 3.01938 66.7318C2.58198 66.2803 2.33592 65.6681 2.33519 65.0296ZM52.499 67.4381H38.4998V40.9445H52.499V67.4381ZM54.8322 67.4381V39.7403C54.8322 39.4209 54.7093 39.1146 54.4905 38.8887C54.2717 38.6629 53.975 38.536 53.6656 38.536H37.3332C37.0238 38.536 36.7271 38.6629 36.5083 38.8887C36.2895 39.1146 36.1666 39.4209 36.1666 39.7403V67.4381H10.5014V33.128L35 14.7358L59.4986 33.128V67.4381H54.8322ZM65.3316 67.4381H61.8318V57.8041C62.4504 57.8048 63.0434 58.0588 63.4808 58.5103C63.9182 58.9618 64.1643 59.574 64.165 60.2126C64.1616 60.4916 64.1104 60.7679 64.0138 61.0286C63.9476 61.2165 63.9279 61.4185 63.9562 61.6163C63.9846 61.8141 64.0603 62.0015 64.1764 62.1616C64.2925 62.3216 64.4454 62.4493 64.6212 62.5332C64.7971 62.617 64.9904 62.6543 65.1837 62.6417C65.2445 62.6376 65.3042 62.6302 65.3638 62.6217H65.3666C65.9854 62.6264 66.577 62.8848 67.0113 63.3399C67.4456 63.7949 67.6869 64.4094 67.6823 65.0482C67.6777 65.687 67.4274 66.2977 66.9865 66.746C66.5457 67.1943 65.9504 67.4435 65.3316 67.4387V67.4381Z" fill="#FFFDFD"/>
<path d="M30.3336 38.5359H16.3344C16.025 38.5359 15.7283 38.6628 15.5095 38.8887C15.2907 39.1145 15.1678 39.4208 15.1678 39.7402V56.5997C15.1678 56.9191 15.2907 57.2254 15.5095 57.4513C15.7283 57.6771 16.025 57.804 16.3344 57.804H30.3336C30.643 57.804 30.9397 57.6771 31.1585 57.4513C31.3773 57.2254 31.5002 56.9191 31.5002 56.5997V39.7402C31.5002 39.4208 31.3773 39.1145 31.1585 38.8887C30.9397 38.6628 30.643 38.5359 30.3336 38.5359ZM29.167 46.9657H24.5006V40.9445H29.167V46.9657ZM22.1674 40.9445V46.9657H17.501V40.9445H22.1674ZM17.501 49.3742H22.1674V55.3955H17.501V49.3742ZM24.5006 55.3955V49.3742H29.167V55.3955H24.5006Z" fill="#FFFDFD"/>
<path d="M57.602 68.8874C57.8486 68.273 57.5659 67.5685 56.9707 67.314C56.3754 67.0595 55.693 67.3513 55.4464 67.9657C55.1999 68.5802 55.4825 69.2846 56.0778 69.5392C56.6731 69.7937 57.3555 69.5019 57.602 68.8874Z" fill="#FFFDFD"/>
</svg>
