<svg width="46" height="45" viewBox="0 0 46 45" fill="none" xmlns="http://www.w3.org/2000/svg">
<path d="M45.5999 13.2302C45.4945 10.8391 45.1078 9.19532 44.5538 7.77094C43.9822 6.25899 43.103 4.90534 41.951 3.78005C40.8255 2.63724 39.4627 1.74923 37.968 1.18676C36.5351 0.632869 34.8995 0.246211 32.5081 0.14079C30.0987 0.0264411 29.3338 0 23.2231 0C17.1123 0 16.3474 0.0264411 13.947 0.131862C11.5555 0.237283 9.91137 0.624285 8.48706 1.17783C6.97447 1.74923 5.62057 2.62831 4.49506 3.78005C3.35204 4.90534 2.4642 6.26791 1.90128 7.76235C1.34728 9.19532 0.960553 10.8302 0.855112 13.2212C0.740741 15.6301 0.714294 16.3949 0.714294 22.5045C0.714294 28.6141 0.740741 29.3788 0.846182 31.7788C0.951623 34.1698 1.3387 35.8136 1.89269 37.238C2.4642 38.7499 3.35204 40.1036 4.49506 41.2289C5.62057 42.3717 6.9834 43.2597 8.47813 43.8222C9.91137 44.3761 11.5466 44.7627 13.9384 44.8681C16.3385 44.9739 17.1037 45 23.2145 45C29.3252 45 30.0901 44.9739 32.4905 44.8681C34.882 44.7627 36.5261 44.3761 37.9505 43.8222C40.9753 42.6529 43.3668 40.2619 44.5362 37.238C45.0899 35.805 45.477 34.1698 45.5824 31.7788C45.6878 29.3788 45.7143 28.6141 45.7143 22.5045C45.7143 16.3949 45.7054 15.6301 45.5999 13.2302ZM41.5468 31.6029C41.4499 33.8006 41.0807 34.9874 40.773 35.7786C40.0167 37.739 38.4605 39.2949 36.4997 40.051C35.7084 40.3587 34.5128 40.7279 32.3233 40.8244C29.9493 40.9301 29.2373 40.9562 23.232 40.9562C17.2266 40.9562 16.5057 40.9301 14.1403 40.8244C11.9422 40.7279 10.7552 40.3587 9.96392 40.051C8.98816 39.6905 8.09998 39.1191 7.37907 38.3719C6.6317 37.6422 6.06019 36.7631 5.69956 35.7875C5.39183 34.9963 5.02261 33.8006 4.9261 31.6119C4.82032 29.2384 4.79421 28.5262 4.79421 22.522C4.79421 16.5178 4.82032 15.797 4.9261 13.4324C5.02261 11.2347 5.39183 10.048 5.69956 9.25679C6.06019 8.28087 6.6317 7.39321 7.388 6.67208C8.1175 5.92487 8.99675 5.35346 9.97285 4.99325C10.7642 4.68557 11.9601 4.31642 14.1493 4.21959C16.5232 4.11417 17.2356 4.08772 23.2406 4.08772C29.2548 4.08772 29.9668 4.11417 32.3322 4.21959C34.5303 4.31642 35.7173 4.68557 36.5086 4.99325C37.4844 5.35346 38.3726 5.92487 39.0935 6.67208C39.8408 7.40179 40.4124 8.28087 40.773 9.25679C41.0807 10.048 41.4499 11.2433 41.5468 13.4324C41.6522 15.8059 41.6787 16.5178 41.6787 22.522C41.6787 28.5262 41.6522 29.2294 41.5468 31.6029Z" fill="#3378C7"/>
<path d="M23.2232 10.9453C16.84 10.9453 11.6611 16.123 11.6611 22.5052C11.6611 28.8875 16.84 34.0651 23.2232 34.0651C29.6067 34.0651 34.7853 28.8875 34.7853 22.5052C34.7853 16.123 29.6067 10.9453 23.2232 10.9453ZM23.2232 30.0038C19.0821 30.0038 15.7231 26.6458 15.7231 22.5052C15.7231 18.3646 19.0821 15.0066 23.2232 15.0066C27.3646 15.0066 30.7232 18.3646 30.7232 22.5052C30.7232 26.6458 27.3646 30.0038 23.2232 30.0038V30.0038Z" fill="#3378C7"/>
<path d="M37.9418 10.4868C37.9418 11.9771 36.7332 13.1855 35.2422 13.1855C33.7516 13.1855 32.543 11.9771 32.543 10.4868C32.543 8.99614 33.7516 7.78809 35.2422 7.78809C36.7332 7.78809 37.9418 8.99614 37.9418 10.4868V10.4868Z" fill="#3378C7"/>
</svg>
