<svg width="70" height="70" viewBox="0 0 70 70" fill="none" xmlns="http://www.w3.org/2000/svg">
<path d="M68.8639 64.2659L69.1237 64.194C69.7648 64.0169 70.1362 63.3705 69.9534 62.75L59.6043 27.6974C58.4246 23.7113 54.9363 20.767 50.6953 20.1779L49.6416 20.0331L50.6776 13.0132C50.6777 12.975 50.6759 12.9367 50.6721 12.8986C50.6803 12.8402 50.6837 12.7813 50.6824 12.7223C50.6793 12.6943 50.6647 12.6703 50.6596 12.6429C50.6295 12.5077 50.5784 12.3775 50.5083 12.257C50.4929 12.2318 50.4889 12.2019 50.4715 12.1777L44.1849 3.48738C42.7576 1.52025 40.5076 0.261153 38.034 0.0453049C38.005 0.0454418 37.9777 0.0381875 37.9485 0.0403775C37.721 0.0224471 37.4943 0 37.264 0H31.859C31.3979 0.00437993 30.9381 0.0457155 30.4841 0.12387C30.4285 0.130714 30.3737 0.141253 30.3196 0.155624C27.9436 0.582804 25.8684 1.97001 24.6142 3.96931L19.4825 12.2467C19.4735 12.2612 19.4722 12.2786 19.4638 12.2934C19.43 12.3585 19.4028 12.4267 19.3822 12.4969C19.3617 12.5492 19.3453 12.603 19.333 12.6576C19.3305 12.6726 19.3219 12.6854 19.3199 12.7007C19.3172 12.76 19.3193 12.8194 19.3264 12.8782C19.3223 12.9231 19.3209 12.9682 19.3223 13.0132L20.3594 20.0324L19.3033 20.1785C15.063 20.7674 11.5751 23.7112 10.3956 27.6968L0.0465558 62.7499C-0.136173 63.3703 0.235224 64.0168 0.876329 64.1939L1.13614 64.2657L0.476788 66.1757C0.263935 66.7931 0.32673 67.4686 0.650323 68.0392C0.973916 68.6098 1.52861 69.0241 2.18103 69.1822L4.74446 69.8027C4.93793 69.8496 5.13664 69.8733 5.33606 69.8734C6.30147 69.8733 7.1731 69.3143 7.54945 68.4539L8.49972 66.3016L9.3244 66.5296C9.92676 66.6961 10.5605 66.3889 10.7835 65.8224L18.1037 47.2259V63C18.1119 64.9308 19.3394 66.6605 21.1986 67.3611L22.0024 67.6606C30.3673 70.7798 39.6313 70.7798 47.9962 67.6606L48.8024 67.3606C50.661 66.6599 51.8881 64.9305 51.8961 63.0001V47.2262L59.2163 65.8227C59.4395 66.3889 60.0731 66.6961 60.6755 66.5299L61.5001 66.3019L62.4504 68.4542C62.8268 69.3144 63.6984 69.8734 64.6638 69.8737C64.8632 69.8737 65.0619 69.8499 65.2554 69.8029L67.82 69.1825C68.4721 69.024 69.0265 68.6097 69.3498 68.0391C69.673 67.4684 69.7358 66.7932 69.5231 66.1759L68.8639 64.2659ZM48.7396 22.192C48.9192 22.2647 49.1073 22.3162 49.2996 22.345L49.3008 22.3456L50.3544 22.4905C53.6527 22.9486 56.3654 25.2388 57.2821 28.339L58.572 32.7074L57.5909 32.7097L56.8778 30.6276C55.8708 27.685 53.6936 25.2521 50.8281 23.8672L48.538 22.7733L48.7396 22.192ZM42.207 4.82709L46.8448 11.2385L44.3624 10.8381L40.4281 3.21514C41.1286 3.62918 41.7341 4.17777 42.207 4.82709ZM40.6926 14.9921C40.3949 15.1075 40.1086 15.2412 39.8275 15.3823V12.5206C40.2025 12.5694 40.5789 12.5959 40.953 12.6562L45.0286 13.3138L40.6926 14.9921ZM44.6549 15.9744V16.8588L39.8615 19.6418L38.8769 19.0064C39.0518 18.8166 39.2374 18.6362 39.4327 18.4661C39.4552 18.4459 39.4766 18.4272 39.4975 18.4054C40.1167 17.8786 40.8241 17.4577 41.5894 17.161L44.6549 15.9744ZM31.504 2.35873C31.6225 2.35189 31.7396 2.33601 31.859 2.33601H37.264L37.277 2.33683L41.4195 10.3636L41.349 10.3522C37.6725 9.76834 33.9277 9.70401 30.2321 10.1614C30.2112 10.1605 30.1936 10.1499 30.1724 10.1499C30.0867 10.1572 30.002 10.1738 29.9201 10.1992C29.4972 10.2537 29.0726 10.2843 28.6509 10.3524L27.2636 10.5762L31.504 2.35873ZM28.9656 12.6694V15.2404C28.7713 15.1409 28.5798 15.037 28.3775 14.9499L24.6815 13.3606L28.9656 12.6694ZM26.6839 5.17146C27.0765 4.54226 27.5888 3.99066 28.1935 3.5461L24.3209 11.0504L22.8965 11.2801L26.6839 5.17146ZM12.7176 28.3384C13.6344 25.2388 16.3466 22.9492 19.6442 22.4911L20.7002 22.345C20.8907 22.3166 21.077 22.2659 21.2549 22.1943L21.4521 22.7693L19.1668 23.8694C16.3023 25.2552 14.1265 27.6885 13.1207 30.6309L12.4076 32.7034H11.4288L12.7176 28.3384ZM5.32899 67.5365L2.76556 66.916L3.45871 64.9081L6.15961 65.6549L5.32899 67.5365ZM11.6449 57.0729L10.2413 55.2618C9.98602 54.9306 9.92959 54.494 10.0928 54.1121L14.9781 42.7659C15.1652 42.3305 15.6046 42.0469 16.0919 42.0473H17.5593L11.6449 57.0729ZM24.1381 65.9201C23.7133 65.7804 23.2893 65.6365 22.8688 65.4799L22.065 65.1812C21.1356 64.8305 20.5219 63.9657 20.5175 63.0004V61.6303L22.3797 62.7118C23.4677 63.3473 24.1343 64.4863 24.1381 65.716V65.9201ZM30.1724 67.3232C28.953 67.1508 27.7443 66.914 26.5518 66.6137V65.716C26.5457 63.6662 25.435 61.7681 23.6218 60.7088L20.5174 58.9058V40.8794C20.5172 40.3159 20.1013 39.8327 19.5285 39.7308C19.4566 39.7179 19.3837 39.7115 19.3104 39.7115H16.0917C14.6295 39.7089 13.3101 40.5603 12.7504 41.8677L7.86512 53.2134C7.3745 54.359 7.54379 55.6701 8.31063 56.6637L10.6285 59.6546L8.92232 63.9891L2.69937 62.2685L10.739 35.0394H12.4075C13.4446 35.0342 14.3646 34.3941 14.6998 33.4443L15.4104 31.3689C16.215 29.0151 17.9552 27.0684 20.2462 25.959L22.5197 24.8646C23.5963 24.3432 24.1189 23.1397 23.7502 22.0308L22.8686 19.4844C22.8218 19.3608 22.7534 19.246 22.6661 19.1449L22.0205 14.7721L27.3968 17.0845C29.2995 17.9032 30.7461 19.4748 31.3675 21.3983L33.1563 26.9373C31.1767 37.016 30.1776 47.2523 30.1726 57.5116V67.3232H30.1724ZM36.2068 67.6372C34.9996 67.6783 33.7911 67.6564 32.5862 67.5716V57.5116C32.5904 47.3182 33.5904 37.148 35.5724 27.1365L36.2068 25.172V67.6372ZM37.4137 17.1098C36.942 17.573 36.5221 18.083 36.1609 18.6313C36.1562 18.6377 36.1488 18.6407 36.1442 18.6474C36.1394 18.6544 36.1394 18.663 36.1346 18.6701C35.6797 19.3586 35.3201 20.1018 35.0646 20.8806L34.3964 22.9486L33.6704 20.7016C33.217 19.3093 32.4322 18.0396 31.3792 16.9943V12.3752C33.3843 12.1789 35.4028 12.1457 37.4137 12.2756V17.1098ZM49.4824 63.0002C49.4783 63.9653 48.865 64.8298 47.9361 65.1806L47.1299 65.4801C46.7098 65.6365 46.2863 65.7804 45.8617 65.9201V65.7162C45.8655 64.4863 46.5321 63.3475 47.6201 62.7118L49.4824 61.6303V63.0002ZM58.4713 57.3683L52.4407 42.0473H54.2522C54.74 42.0466 55.1802 42.3305 55.3671 42.7665L60.2512 54.1121C60.4144 54.4941 60.3579 54.931 60.1027 55.2624L58.4713 57.3683ZM64.671 67.5359L63.8405 65.6547L66.5413 64.908L67.2344 66.9159L64.671 67.5359ZM61.0774 63.9891L59.4873 59.9496L62.0332 56.6636C62.8 55.67 62.9693 54.3589 62.4787 53.2133L57.5947 41.8682C57.035 40.5601 55.7151 39.7083 54.2522 39.7113H51.0347V39.778C50.8535 39.7186 50.6603 39.7023 50.4714 39.7306C49.8986 39.8326 49.4828 40.3156 49.4825 40.8792V58.9057L46.3781 60.7087C44.5648 61.7681 43.4542 63.6662 43.4481 65.7159V66.6135C41.8625 67.0111 40.2491 67.2964 38.6206 67.4672V21.6299C39.38 22.0854 40.3389 22.0911 41.1039 21.6448L45.8984 18.8607C46.6228 18.4365 47.0663 17.6777 47.0687 16.8582V15.0403L47.9924 14.6826L47.3335 19.1466C47.2466 19.2472 47.1782 19.3615 47.1312 19.4844L46.2437 22.048C45.8841 23.1507 46.405 24.343 47.473 24.8613L49.749 25.9568C52.041 27.0652 53.7824 29.0117 54.5883 31.3656L55.3072 33.4643C55.4678 33.9148 55.7688 34.3058 56.1688 34.5838C56.5792 34.882 57.0792 35.042 57.5924 35.0394H59.2609L67.3005 62.2686L61.0774 63.9891Z" fill="#FFFEFE"/>
<path d="M26.5518 33.8715H25.3449C24.0125 33.873 22.9327 34.9181 22.9312 36.2075V45.5513C22.9313 45.982 23.1764 46.3779 23.5687 46.5813C23.9612 46.7844 24.4371 46.7619 24.8074 46.5231L27.8906 44.5339C28.5628 44.1013 28.9664 43.3716 28.9654 42.5903V36.2075C28.964 34.9179 27.8842 33.8729 26.5518 33.8715ZM26.5518 42.5903L25.3449 43.3689V36.2075H26.5518V42.5903Z" fill="#FFFEFE"/>
</svg>
