<svg width="60" height="60" viewBox="0 0 60 60" fill="none" xmlns="http://www.w3.org/2000/svg">
<path d="M59.0262 55.085L59.2489 55.0235C59.7984 54.8716 60.1167 54.3175 59.9601 53.7857L51.0894 23.7407C50.0782 20.324 47.0883 17.8003 43.4531 17.2954L42.5499 17.1712L43.4379 11.1542C43.438 11.1214 43.4365 11.0886 43.4332 11.056C43.4402 11.0059 43.4431 10.9554 43.442 10.9049C43.4394 10.8808 43.4269 10.8603 43.4225 10.8368C43.3967 10.7209 43.3529 10.6093 43.2928 10.506C43.2796 10.4844 43.2762 10.4588 43.2613 10.438L37.8728 2.98918C36.6494 1.30307 34.7208 0.223846 32.6005 0.0388328C32.5757 0.0389501 32.5523 0.0327322 32.5273 0.0346093C32.3323 0.0192404 32.1379 0 31.9406 0H27.3077C26.9125 0.00375423 26.5184 0.0391847 26.1292 0.106174C26.0816 0.11204 26.0346 0.121074 25.9883 0.133392C23.9517 0.499547 22.1729 1.68858 21.0979 3.40227L16.6993 10.4972C16.6915 10.5096 16.6905 10.5245 16.6833 10.5372C16.6543 10.593 16.6309 10.6514 16.6133 10.7116C16.5958 10.7564 16.5817 10.8025 16.5712 10.8494C16.569 10.8623 16.5616 10.8732 16.5599 10.8863C16.5576 10.9371 16.5594 10.988 16.5655 11.0385C16.562 11.077 16.5607 11.1156 16.562 11.1542L17.4509 17.1707L16.5457 17.2958C12.9111 17.8007 9.92154 20.3239 8.91051 23.7401L0.0399049 53.7856C-0.116719 54.3174 0.201621 54.8715 0.751139 55.0233L0.973832 55.0849L0.408675 56.722C0.22623 57.2512 0.280054 57.8302 0.55742 58.3193C0.834785 58.8084 1.31023 59.1635 1.86945 59.299L4.06668 59.8309C4.23251 59.8711 4.40284 59.8914 4.57377 59.8915C5.40126 59.8914 6.14837 59.4123 6.47096 58.6748L7.28548 56.8299L7.99235 57.0254C8.50865 57.1681 9.05186 56.9048 9.24304 56.4192L15.5175 40.4794V54C15.5245 55.655 16.5766 57.1376 18.1703 57.7381L18.8592 57.9948C26.0291 60.6684 33.9697 60.6684 41.1396 57.9948L41.8306 57.7376C43.4237 57.1371 44.4755 55.6548 44.4824 54.0001V40.4796L50.7568 56.4194C50.9481 56.9048 51.4912 57.1681 52.0075 57.0256L52.7144 56.8302L53.5289 58.675C53.8515 59.4124 54.5986 59.8915 55.4261 59.8917C55.597 59.8917 55.7674 59.8713 55.9332 59.8311L58.1314 59.2993C58.6904 59.1634 59.1656 58.8083 59.4427 58.3192C59.7197 57.8301 59.7735 57.2514 59.5912 56.7222L59.0262 55.085ZM41.7768 19.0217C41.9307 19.084 42.092 19.1281 42.2568 19.1529L42.2578 19.1534L43.1609 19.2776C45.988 19.6703 48.3132 21.6333 49.0989 24.2905L50.2045 28.0349L49.3636 28.0369L48.7524 26.2522C47.8892 23.73 46.0231 21.6446 43.5669 20.4576L41.604 19.52L41.7768 19.0217ZM36.1774 4.13751L40.1527 9.63299L38.0249 9.28983L34.6527 2.75584C35.2531 3.11073 35.7721 3.58094 36.1774 4.13751ZM34.8794 12.8504C34.6242 12.9493 34.3788 13.0639 34.1378 13.1848V10.7319C34.4593 10.7738 34.7819 10.7964 35.1025 10.8482L38.5959 11.4118L34.8794 12.8504ZM38.2756 13.6924V14.4504L34.167 16.8358L33.3231 16.2912C33.473 16.1285 33.6321 15.9739 33.7995 15.828C33.8187 15.8108 33.8371 15.7947 33.855 15.7761C34.3857 15.3245 34.9921 14.9638 35.648 14.7094L38.2756 13.6924ZM27.0034 2.02177C27.105 2.0159 27.2054 2.00229 27.3077 2.00229H31.9406L31.9517 2.003L35.5025 8.88308L35.442 8.87335C32.2907 8.37286 29.0809 8.31772 25.9132 8.7098C25.8953 8.70898 25.8802 8.69995 25.8621 8.69995C25.7886 8.70617 25.716 8.72036 25.6458 8.74218C25.2833 8.78888 24.9194 8.81516 24.5579 8.87346L23.3688 9.06528L27.0034 2.02177ZM24.8276 10.8594V13.0632C24.6611 12.9779 24.4969 12.8888 24.3236 12.8142L21.1556 11.4519L24.8276 10.8594ZM22.8719 4.43268C23.2084 3.89337 23.6475 3.42057 24.1659 3.03952L20.8464 9.47179L19.6256 9.66866L22.8719 4.43268ZM10.9008 24.2901C11.6866 21.6333 14.0113 19.6707 16.8379 19.2781L17.7431 19.1529C17.9063 19.1285 18.066 19.0851 18.2185 19.0237L18.3875 19.5166L16.4287 20.4595C13.9734 21.6473 12.1085 23.733 11.2463 26.2551L10.6351 28.0315H9.79607L10.9008 24.2901ZM4.56771 57.8884L2.37048 57.3566L2.96461 55.6355L5.27967 56.2756L4.56771 57.8884ZM9.98131 48.9197L8.77826 47.3673C8.55944 47.0834 8.51107 46.7091 8.65097 46.3818L12.8384 36.6565C12.9987 36.2833 13.3754 36.0402 13.793 36.0406H15.0509L9.98131 48.9197ZM20.6898 56.503C20.3257 56.3832 19.9622 56.2599 19.6018 56.1257L18.9129 55.8696C18.1162 55.569 17.5902 54.8278 17.5864 54.0003V52.8259L19.1826 53.753C20.1152 54.2977 20.6866 55.2739 20.6898 56.328V56.503ZM25.8621 57.7056C24.8169 57.5578 23.7809 57.3548 22.7587 57.0974V56.328C22.7535 54.5711 21.8015 52.9441 20.2472 52.0361L17.5863 50.4907V35.0395C17.5862 34.5565 17.2297 34.1423 16.7387 34.0549C16.6771 34.0439 16.6146 34.0384 16.5518 34.0384H13.7929C12.5395 34.0362 11.4086 34.766 10.9289 35.8866L6.74153 45.6115C6.321 46.5935 6.46611 47.7173 7.1234 48.5689L9.11017 51.1325L7.6477 54.8478L2.31375 53.373L9.20485 30.0338H10.635C11.5239 30.0293 12.3125 29.4806 12.5998 28.6666L13.209 26.8876C13.8986 24.8701 15.3902 23.2015 17.3539 22.2506L19.3026 21.3125C20.2254 20.8656 20.6733 19.834 20.3573 18.8835L19.6017 16.7009C19.5616 16.595 19.5029 16.4965 19.4281 16.41L18.8747 12.6618L23.483 14.6438C25.1139 15.3456 26.3538 16.6927 26.8864 18.3414L28.4197 23.0891C26.7229 31.728 25.8665 40.502 25.8622 49.2957V57.7056H25.8621ZM31.0344 57.9747C29.9996 58.0099 28.9638 57.9912 27.931 57.9185V49.2957C27.9347 40.5584 28.7917 31.8411 30.4906 23.2599L31.0344 21.576V57.9747ZM32.0688 14.6655C31.6646 15.0625 31.3046 15.4997 30.995 15.9697C30.991 15.9752 30.9847 15.9777 30.9807 15.9835C30.9766 15.9895 30.9766 15.9969 30.9725 16.003C30.5826 16.5931 30.2743 17.2301 30.0554 17.8977L29.4826 19.6703L28.8604 17.7442C28.4717 16.5509 27.799 15.4625 26.8965 14.5665V10.6073C28.6151 10.4391 30.3453 10.4106 32.0688 10.5219V14.6655ZM42.4134 54.0002C42.4099 54.8274 41.8843 55.5684 41.0881 55.8691L40.3971 56.1258C40.0369 56.2599 39.674 56.3832 39.3101 56.503V56.3282C39.3133 55.2739 39.8847 54.2978 40.8173 53.753L42.4134 52.8259V54.0002ZM50.1182 49.1728L44.9491 36.0406H46.5019C46.92 36.04 47.2973 36.2833 47.4576 36.657L51.6439 46.3818C51.7837 46.7093 51.7354 47.0837 51.5166 47.3678L50.1182 49.1728ZM55.4323 57.8879L54.7205 56.2755L57.0354 55.6354L57.6295 57.3565L55.4323 57.8879ZM52.3521 54.8478L50.9891 51.3854L53.1713 48.5688C53.8286 47.7171 53.9737 46.5933 53.5532 45.6114L49.3669 35.887C48.8872 34.7658 47.7558 34.0357 46.5019 34.0383H43.744V34.0954C43.5887 34.0445 43.4231 34.0305 43.2612 34.0548C42.7702 34.1422 42.4138 34.5562 42.4136 35.0394V50.4906L39.7527 52.036C38.1984 52.9441 37.2464 54.5711 37.2412 56.3279V57.0973C35.8821 57.4381 34.4992 57.6826 33.1034 57.829V18.5399C33.7543 18.9303 34.5762 18.9353 35.2319 18.5527L39.3414 16.1663C39.9624 15.8027 40.3425 15.1523 40.3446 14.4499V12.8917L41.1363 12.5851L40.5715 16.4114C40.4971 16.4976 40.4384 16.5956 40.3982 16.7009L39.6375 18.8983C39.3292 19.8434 39.7757 20.8654 40.6912 21.3097L42.642 22.2487C44.6065 23.1988 46.0992 24.8672 46.79 26.8848L47.4061 28.6837C47.5439 29.0698 47.8018 29.405 48.1447 29.6432C48.4965 29.8989 48.925 30.036 49.3649 30.0338H50.795L57.6861 53.3731L52.3521 54.8478Z" fill="black"/>
<path d="M22.7587 29.0327H21.7242C20.5822 29.034 19.6566 29.9297 19.6553 31.035V39.0439C19.6554 39.4131 19.8655 39.7524 20.2018 39.9268C20.5382 40.1009 20.9461 40.0816 21.2635 39.8769L23.9062 38.1719C24.4824 37.8011 24.8284 37.1756 24.8275 36.506V31.035C24.8263 29.9296 23.9007 29.0339 22.7587 29.0327ZM22.7587 36.506L21.7242 37.1733V31.035H22.7587V36.506Z" fill="black"/>
</svg>
