<svg width="241" height="52" viewBox="0 0 241 52" fill="none" xmlns="http://www.w3.org/2000/svg">
<path d="M238.408 40.6111C237.721 40.6119 237.062 40.8852 236.576 41.3711C236.09 41.8571 235.816 42.5159 235.816 43.2031C235.815 44.1194 235.45 44.9979 234.802 45.6458C234.154 46.2937 233.276 46.6582 232.359 46.6592H217.696V46.4022C217.697 45.5407 217.426 44.7009 216.923 44.002C216.419 43.3031 215.708 42.7806 214.89 42.5087L212.367 41.6682L217.794 28.7805C217.945 28.4204 218.041 28.0395 218.079 27.6508H223.541L225.086 28.4235C225.206 28.4836 225.339 28.5148 225.473 28.5148H227.849C228.593 28.514 229.307 28.2178 229.834 27.6914C230.36 27.165 230.656 26.4512 230.657 25.7067V23.3307C230.657 23.1015 230.566 22.8817 230.404 22.7197C230.242 22.5577 230.022 22.4666 229.793 22.4666H228.269L226.723 21.6939C226.603 21.6339 226.471 21.6027 226.337 21.6027C226.203 21.6027 226.07 21.6339 225.95 21.6939L225.903 21.7174L222.448 19.6963C222.539 19.4727 222.616 19.2437 222.678 19.0106H223.659L224.841 19.2469C226.823 19.6492 228.884 19.3158 230.639 18.309L232.77 19.7294C232.89 19.8095 233.028 19.8581 233.172 19.871C233.316 19.8839 233.46 19.8606 233.593 19.8033C233.725 19.7459 233.841 19.6563 233.93 19.5427C234.019 19.429 234.078 19.2949 234.101 19.1526L234.928 14.1905L235.36 13.6513C235.893 12.9864 236.278 12.2161 236.491 11.3911C236.703 10.5662 236.739 9.70554 236.594 8.86603C236.449 8.02652 236.128 7.22732 235.651 6.52128C235.174 5.81525 234.553 5.21847 233.828 4.77044C234.045 4.2444 234.128 3.67312 234.07 3.10725C234.013 2.54138 233.817 1.99843 233.499 1.52656C233.182 1.05468 232.753 0.668471 232.25 0.402181C231.747 0.135892 231.187 -0.00224392 230.618 2.75673e-05C230.049 0.00229905 229.49 0.144908 228.989 0.415203C228.489 0.685498 228.063 1.07512 227.749 1.54952C227.435 2.02392 227.243 2.56842 227.191 3.13473C227.138 3.70103 227.225 4.27164 227.446 4.79593C227.08 5.02623 226.741 5.29523 226.433 5.59828C226.431 5.60065 226.428 5.60292 226.426 5.6053C226.417 5.61405 226.408 5.62204 226.399 5.63079L223.764 8.26497L217.759 1.59247C217.295 1.07822 216.674 0.730062 215.993 0.601092C215.312 0.472122 214.608 0.569417 213.987 0.878138L213.131 1.30615C212.931 1.40563 212.71 1.4574 212.487 1.4574C212.263 1.4574 212.043 1.40563 211.843 1.30615L209.416 0.0933916C209.273 0.0216196 209.112 -0.00876776 208.952 0.00563443C208.793 0.0200366 208.64 0.0786594 208.512 0.174934L205.055 2.76699C204.931 2.86005 204.834 2.98484 204.775 3.12824C204.716 3.27164 204.696 3.42837 204.718 3.58196C204.74 3.73555 204.804 3.88033 204.901 4.00108C204.999 4.12184 205.127 4.21412 205.272 4.26823C205.311 4.2827 209.186 5.72626 211.133 6.43821C211.602 6.60911 212.105 6.66707 212.601 6.6074C213.096 6.54773 213.571 6.37211 213.986 6.09477C214.263 5.90964 214.596 5.82622 214.928 5.85866C215.26 5.89111 215.57 6.03742 215.807 6.27275L216.919 7.38518C212.381 6.76358 207.761 7.16282 203.397 8.55377L192.827 2.37052L193.386 1.25258C193.486 1.04788 193.501 0.811807 193.429 0.5958C193.356 0.379793 193.2 0.201363 192.996 0.0993938C192.792 -0.00257575 192.556 -0.0198198 192.34 0.0514196C192.123 0.122659 191.944 0.276607 191.84 0.479717L191.332 1.49613L190.457 0.984952C190.259 0.86923 190.024 0.836819 189.802 0.894847C189.58 0.952876 189.391 1.09659 189.275 1.29438C189.159 1.49217 189.127 1.72782 189.185 1.94951C189.243 2.17119 189.387 2.36074 189.584 2.47647L190.557 3.04564L190.112 3.93634C190.06 4.03792 190.029 4.14876 190.02 4.26246C190.012 4.37615 190.025 4.49046 190.061 4.59878C190.097 4.7071 190.153 4.8073 190.228 4.89359C190.302 4.97989 190.393 5.05057 190.495 5.10158C190.597 5.15258 190.708 5.18289 190.822 5.19075C190.936 5.19862 191.05 5.18389 191.158 5.14742C191.266 5.11094 191.366 5.05344 191.452 4.97823C191.537 4.90302 191.607 4.81159 191.658 4.7092L192.052 3.92003L201.292 9.32458C200.197 9.83094 199.252 10.6138 198.552 11.5962V11.597C197.692 12.8008 197.239 14.2469 197.256 15.7258C197.274 17.2047 197.761 18.6396 198.649 19.8229L206.372 29.5809L203.078 41.1079L202.667 41.725C201.76 43.0812 201.278 44.6758 201.279 46.3068V46.6592H191.749C191.061 46.6592 190.402 46.9323 189.916 47.4184C189.43 47.9045 189.157 48.5638 189.157 49.2513C189.157 49.9387 189.43 50.598 189.916 51.0841C190.402 51.5702 191.061 51.8433 191.749 51.8433H232.359C234.65 51.8407 236.847 50.9296 238.466 49.3098C240.086 47.69 240.997 45.4938 241 43.2031C240.999 42.5159 240.726 41.8571 240.24 41.3711C239.754 40.8852 239.095 40.6119 238.408 40.6111ZM215.968 46.4022V46.6592H214.24V46.4025C214.241 45.4557 213.914 44.5378 213.314 43.8049L214.344 44.148C214.817 44.3055 215.229 44.608 215.52 45.0126C215.812 45.4172 215.969 45.9034 215.968 46.4022ZM216.202 28.1093L210.392 41.909L210.39 41.9135L210.298 42.1305L209.214 41.7692C209.984 39.0939 212.92 30.6918 213.815 28.1424C213.873 27.9762 213.919 27.8062 213.954 27.6337C214.067 27.6437 214.181 27.6508 214.296 27.6508H216.337C216.309 27.8082 216.264 27.962 216.202 28.1093ZM221.127 10.3704H222.855V15.5454C222.79 14.9797 222.601 14.4351 222.303 13.9502C222.004 13.4652 221.603 13.0517 221.127 12.7389V10.3704ZM226.986 7.48724L228.624 9.45289L227.259 10.8179L225.621 8.85196L226.986 7.48724ZM230.576 16.1417L228.929 14.9065C228.661 14.7047 228.444 14.4437 228.294 14.1439C228.144 13.8441 228.066 13.5136 228.065 13.1784V12.4564L229.793 10.7284L232.891 13.8264L230.576 16.1417ZM221.152 15.9865V17.4868C221.153 18.2227 220.956 18.9453 220.58 19.5782C220.576 19.5847 220.571 19.5905 220.568 19.5971C220.564 19.6037 220.562 19.6091 220.558 19.6151C220.308 20.0265 219.988 20.3909 219.612 20.6915L219.087 21.1112L216.386 18.9503L216.577 18.76C216.658 18.6798 216.722 18.5843 216.766 18.479C216.81 18.3736 216.832 18.2607 216.832 18.1465C216.832 18.1451 216.832 18.1437 216.832 18.1423V15.9865C216.832 15.4136 217.06 14.8642 217.465 14.4591C217.87 14.054 218.42 13.8264 218.993 13.8264C219.565 13.8264 220.115 14.054 220.52 14.4591C220.925 14.8642 221.153 15.4136 221.153 15.9865H221.152ZM212.571 20.3214L211.617 19.0106H213.882L212.571 20.3214ZM212.866 22.4706L215.157 20.1798L217.704 22.2182L217.157 22.6565C217.017 22.7684 216.915 22.9209 216.866 23.093C216.816 23.2652 216.822 23.4484 216.881 23.6173C216.94 23.7863 217.051 23.9326 217.197 24.0362C217.343 24.1397 217.517 24.1953 217.697 24.1952H221.991V25.9233C221.991 25.9233 213.752 25.8671 213.508 25.7643C213.494 25.7582 213.481 25.7525 213.467 25.7471C213.168 25.6126 212.907 25.4077 212.705 25.1498C212.503 24.892 212.366 24.589 212.307 24.2668C212.248 23.9446 212.268 23.6129 212.365 23.3002C212.463 22.9874 212.634 22.7029 212.866 22.4712V22.4706ZM227.679 24.1034C227.798 24.1635 227.931 24.1947 228.065 24.1947H228.929V25.7067C228.929 25.9931 228.815 26.2676 228.612 26.4701C228.41 26.6725 228.135 26.7864 227.849 26.7867H225.677L224.131 26.014C224.011 25.954 223.879 25.9227 223.745 25.9227H223.719V24.1947H224.609C224.743 24.1947 224.875 24.1635 224.995 24.1034L226.337 23.4326L227.679 24.1034ZM223.762 22.4666H220.263C220.263 22.4401 220.261 22.4138 220.259 22.3875L220.692 22.0409C221.012 21.7849 221.303 21.4963 221.563 21.1798L223.762 22.4666ZM225.18 17.5525L224.609 17.4384V10.3369L226.337 12.4105V13.1784C226.339 13.7818 226.48 14.3766 226.75 14.9163C227.02 15.4559 227.411 15.9257 227.893 16.2889L229.06 17.1647C227.835 17.6815 226.483 17.8167 225.179 17.5525H225.18ZM232.617 17.5505L232.014 17.1484L232.818 16.3439L232.617 17.5505ZM234.041 12.5321L233.863 12.3538L233.861 12.3516L230.432 8.92313L228.265 6.32297C229.113 5.75394 230.137 5.50593 231.151 5.62347C232.166 5.74101 233.106 6.21641 233.801 6.96429C234.497 7.71218 234.903 8.68356 234.947 9.70402C234.991 10.7245 234.67 11.7272 234.041 12.532L234.041 12.5321ZM228.903 3.45821C228.902 3.20389 228.958 2.9525 229.065 2.72201C229.173 2.49151 229.33 2.28757 229.525 2.12476C229.72 1.96195 229.949 1.84427 230.195 1.78012C230.442 1.71597 230.699 1.70693 230.949 1.75366C231.199 1.80038 231.435 1.90171 231.642 2.05041C231.848 2.19911 232.019 2.39153 232.142 2.61392C232.266 2.8363 232.339 3.08319 232.356 3.33695C232.373 3.5907 232.333 3.84508 232.241 4.08192C231.188 3.79687 230.077 3.80116 229.026 4.09434C228.945 3.89198 228.904 3.67612 228.903 3.45821ZM213.024 4.65898C212.835 4.78503 212.619 4.86485 212.394 4.89198C212.169 4.91912 211.94 4.8928 211.727 4.81515C210.551 4.38498 208.669 3.68717 207.358 3.19998L209.121 1.87781L211.069 2.85167C211.509 3.07053 211.994 3.18443 212.486 3.18443C212.978 3.18443 213.463 3.07053 213.903 2.85167L214.759 2.42365C215.041 2.28334 215.362 2.23913 215.671 2.29776C215.981 2.3564 216.263 2.51466 216.474 2.74842L221.779 8.64233H220.621L220.067 8.0886L220.065 8.08719L217.029 5.05049C216.509 4.53276 215.826 4.21087 215.096 4.1395C214.366 4.06813 213.634 4.25168 213.024 4.65898ZM218.068 9.32091L219.037 9.50278L219.399 9.86416V12.12C218.4 12.0151 217.4 12.3006 216.607 12.9166C215.814 13.5326 215.29 14.4314 215.145 15.4249L205.454 9.75648C209.576 8.68818 213.882 8.53947 218.068 9.32091ZM201.003 11.5103C201.41 11.1945 201.86 10.9398 202.34 10.7543C202.626 10.6447 202.914 10.541 203.202 10.4411L214.898 17.2825H210.148L203.984 13.7871L200.594 11.8647C200.724 11.7395 200.861 11.6213 201.003 11.5103H201.003ZM207.991 28.8256L200.031 18.7859C199.443 18.0021 199.086 17.0689 199.002 16.0925C198.918 15.1161 199.11 14.1357 199.556 13.2629L202.482 14.9221L209.331 18.806L211.35 21.5817C211.025 21.9944 210.791 22.4708 210.661 22.9801C210.532 23.4893 210.511 24.02 210.6 24.5378C210.689 25.0555 210.886 25.5489 211.177 25.9859C211.469 26.4229 211.849 26.7938 212.293 27.0746C212.276 27.2432 212.24 27.4093 212.184 27.5693C211.281 30.1398 208.312 38.6376 207.542 41.3278L204.959 40.8112L208.159 29.6164C208.197 29.481 208.202 29.3381 208.173 29.2003C208.144 29.0624 208.082 28.9338 207.992 28.8256H207.991ZM203.007 46.3065C203.006 45.0167 203.388 43.7556 204.105 42.6832L204.27 42.4359L206.738 42.9293C206.744 42.9308 206.751 42.9321 206.758 42.9334L207.97 43.1758L210.888 44.1478C211.361 44.3051 211.773 44.6076 212.064 45.0123C212.356 45.417 212.513 45.9032 212.512 46.402V46.6592H203.008L203.007 46.3065ZM232.359 50.1153H191.749C191.52 50.1153 191.3 50.0243 191.138 49.8622C190.976 49.7002 190.885 49.4804 190.885 49.2513C190.885 49.0221 190.976 48.8023 191.138 48.6403C191.3 48.4783 191.52 48.3872 191.749 48.3872H232.359C233.734 48.3857 235.052 47.839 236.024 46.8671C236.995 45.8952 237.542 44.5776 237.544 43.2031C237.544 42.974 237.635 42.7542 237.797 42.5922C237.959 42.4301 238.179 42.3391 238.408 42.3391C238.637 42.3391 238.857 42.4301 239.019 42.5922C239.181 42.7542 239.272 42.974 239.272 43.2031C239.27 45.0357 238.541 46.7926 237.245 48.0885C235.949 49.3843 234.192 50.1132 232.359 50.1153Z" fill="#FFFDFD"/>
<path d="M199.525 36.291C199.296 36.291 199.076 36.382 198.914 36.544C198.752 36.7061 198.661 36.9258 198.661 37.155C198.661 37.3841 198.752 37.6039 198.914 37.7659C199.076 37.928 199.296 38.019 199.525 38.019H201.253C201.483 38.019 201.702 37.928 201.864 37.7659C202.027 37.6039 202.118 37.3841 202.118 37.155C202.118 36.9258 202.027 36.7061 201.864 36.544C201.702 36.382 201.483 36.291 201.253 36.291H199.525Z" fill="#FFFDFD"/>
<path d="M190.021 36.291C189.792 36.291 189.572 36.382 189.41 36.544C189.248 36.7061 189.157 36.9258 189.157 37.155C189.157 37.3841 189.248 37.6039 189.41 37.7659C189.572 37.928 189.792 38.019 190.021 38.019H196.069C196.298 38.019 196.518 37.928 196.68 37.7659C196.842 37.6039 196.933 37.3841 196.933 37.155C196.933 36.9258 196.842 36.7061 196.68 36.544C196.518 36.382 196.298 36.291 196.069 36.291H190.021Z" fill="#FFFDFD"/>
<path d="M196.069 31.1068C196.069 31.336 196.16 31.5558 196.322 31.7178C196.484 31.8798 196.704 31.9709 196.933 31.9709H202.118C202.347 31.9709 202.566 31.8798 202.729 31.7178C202.891 31.5558 202.982 31.336 202.982 31.1068C202.982 30.8777 202.891 30.6579 202.729 30.4959C202.566 30.3339 202.347 30.2428 202.118 30.2428H196.933C196.704 30.2428 196.484 30.3339 196.322 30.4959C196.16 30.6579 196.069 30.8777 196.069 31.1068Z" fill="#FFFDFD"/>
<path d="M190.021 31.9709H193.477C193.706 31.9709 193.926 31.8798 194.088 31.7178C194.25 31.5558 194.341 31.336 194.341 31.1068C194.341 30.8777 194.25 30.6579 194.088 30.4959C193.926 30.3339 193.706 30.2428 193.477 30.2428H190.021C189.792 30.2428 189.572 30.3339 189.41 30.4959C189.248 30.6579 189.157 30.8777 189.157 31.1068C189.157 31.336 189.248 31.5558 189.41 31.7178C189.572 31.8798 189.792 31.9709 190.021 31.9709Z" fill="#FFFDFD"/>
<path d="M198.661 26.7867C198.89 26.7867 199.11 26.6957 199.272 26.5337C199.434 26.3716 199.525 26.1519 199.525 25.9227C199.525 25.6936 199.434 25.4738 199.272 25.3118C199.11 25.1497 198.89 25.0587 198.661 25.0587H197.797C197.568 25.0587 197.348 25.1497 197.186 25.3118C197.024 25.4738 196.933 25.6936 196.933 25.9227C196.933 26.1519 197.024 26.3716 197.186 26.5337C197.348 26.6957 197.568 26.7867 197.797 26.7867H198.661Z" fill="#FFFDFD"/>
<path d="M194.341 25.0587H190.021C189.792 25.0587 189.572 25.1497 189.41 25.3118C189.248 25.4738 189.157 25.6936 189.157 25.9227C189.157 26.1519 189.248 26.3716 189.41 26.5337C189.572 26.6957 189.792 26.7867 190.021 26.7867H194.341C194.57 26.7867 194.79 26.6957 194.952 26.5337C195.114 26.3716 195.205 26.1519 195.205 25.9227C195.205 25.6936 195.114 25.4738 194.952 25.3118C194.79 25.1497 194.57 25.0587 194.341 25.0587Z" fill="#FFFDFD"/>
<path d="M9.33 39.5166C7.71 39.5166 6.14 39.2866 4.62 38.8266C3.12 38.3666 1.93 37.7566 1.05 36.9966L2.4 33.9666C3.26 34.6466 4.31 35.2066 5.55 35.6466C6.81 36.0666 8.07 36.2766 9.33 36.2766C10.89 36.2766 12.05 36.0266 12.81 35.5266C13.59 35.0266 13.98 34.3666 13.98 33.5466C13.98 32.9466 13.76 32.4566 13.32 32.0766C12.9 31.6766 12.36 31.3666 11.7 31.1466C11.04 30.9266 10.14 30.6766 9 30.3966C7.4 30.0166 6.1 29.6366 5.1 29.2566C4.12 28.8766 3.27 28.2866 2.55 27.4866C1.85 26.6666 1.5 25.5666 1.5 24.1866C1.5 23.0266 1.81 21.9766 2.43 21.0366C3.07 20.0766 4.02 19.3166 5.28 18.7566C6.56 18.1966 8.12 17.9166 9.96 17.9166C11.24 17.9166 12.5 18.0766 13.74 18.3966C14.98 18.7166 16.05 19.1766 16.95 19.7766L15.72 22.8066C14.8 22.2666 13.84 21.8566 12.84 21.5766C11.84 21.2966 10.87 21.1566 9.93 21.1566C8.39 21.1566 7.24 21.4166 6.48 21.9366C5.74 22.4566 5.37 23.1466 5.37 24.0066C5.37 24.6066 5.58 25.0966 6 25.4766C6.44 25.8566 6.99 26.1566 7.65 26.3766C8.31 26.5966 9.21 26.8466 10.35 27.1266C11.91 27.4866 13.19 27.8666 14.19 28.2666C15.19 28.6466 16.04 29.2366 16.74 30.0366C17.46 30.8366 17.82 31.9166 17.82 33.2766C17.82 34.4366 17.5 35.4866 16.86 36.4266C16.24 37.3666 15.29 38.1166 14.01 38.6766C12.73 39.2366 11.17 39.5166 9.33 39.5166ZM27.8672 32.3466L25.0772 34.9866V39.2166H21.3272V16.9566H25.0772V30.3966L32.8472 23.1966H37.3472L30.6572 29.9166L37.9772 39.2166H33.4172L27.8672 32.3466ZM40.253 23.1966H44.003V39.2166H40.253V23.1966ZM42.143 20.5566C41.463 20.5566 40.893 20.3466 40.433 19.9266C39.973 19.4866 39.743 18.9466 39.743 18.3066C39.743 17.6666 39.973 17.1366 40.433 16.7166C40.893 16.2766 41.463 16.0566 42.143 16.0566C42.823 16.0566 43.393 16.2666 43.853 16.6866C44.313 17.0866 44.543 17.5966 44.543 18.2166C44.543 18.8766 44.313 19.4366 43.853 19.8966C43.413 20.3366 42.843 20.5566 42.143 20.5566ZM66.0959 23.0166C67.6559 23.0166 69.0459 23.3566 70.2659 24.0366C71.5059 24.7166 72.4759 25.6766 73.1759 26.9166C73.8759 28.1566 74.2259 29.5866 74.2259 31.2066C74.2259 32.8266 73.8759 34.2666 73.1759 35.5266C72.4759 36.7666 71.5059 37.7266 70.2659 38.4066C69.0459 39.0866 67.6559 39.4266 66.0959 39.4266C63.9359 39.4266 62.2259 38.7066 60.9659 37.2666V45.0366H57.2159V23.1966H60.7859V25.2966C61.4059 24.5366 62.1659 23.9666 63.0659 23.5866C63.9859 23.2066 64.9959 23.0166 66.0959 23.0166ZM65.6759 36.2166C67.0559 36.2166 68.1859 35.7566 69.0659 34.8366C69.9659 33.9166 70.4159 32.7066 70.4159 31.2066C70.4159 29.7066 69.9659 28.4966 69.0659 27.5766C68.1859 26.6566 67.0559 26.1966 65.6759 26.1966C64.7759 26.1966 63.9659 26.4066 63.2459 26.8266C62.5259 27.2266 61.9559 27.8066 61.5359 28.5666C61.1159 29.3266 60.9059 30.2066 60.9059 31.2066C60.9059 32.2066 61.1159 33.0866 61.5359 33.8466C61.9559 34.6066 62.5259 35.1966 63.2459 35.6166C63.9659 36.0166 64.7759 36.2166 65.6759 36.2166ZM83.6972 23.0166C86.0572 23.0166 87.8572 23.5866 89.0972 24.7266C90.3572 25.8466 90.9872 27.5466 90.9872 29.8266V39.2166H87.4472V37.2666C86.9872 37.9666 86.3272 38.5066 85.4672 38.8866C84.6272 39.2466 83.6072 39.4266 82.4072 39.4266C81.2072 39.4266 80.1572 39.2266 79.2572 38.8266C78.3572 38.4066 77.6572 37.8366 77.1572 37.1166C76.6772 36.3766 76.4372 35.5466 76.4372 34.6266C76.4372 33.1866 76.9672 32.0366 78.0272 31.1766C79.1072 30.2966 80.7972 29.8566 83.0972 29.8566H87.2372V29.6166C87.2372 28.4966 86.8972 27.6366 86.2172 27.0366C85.5572 26.4366 84.5672 26.1366 83.2472 26.1366C82.3472 26.1366 81.4572 26.2766 80.5772 26.5566C79.7172 26.8366 78.9872 27.2266 78.3872 27.7266L76.9172 24.9966C77.7572 24.3566 78.7672 23.8666 79.9472 23.5266C81.1272 23.1866 82.3772 23.0166 83.6972 23.0166ZM83.1872 36.6966C84.1272 36.6966 84.9572 36.4866 85.6772 36.0666C86.4172 35.6266 86.9372 35.0066 87.2372 34.2066V32.3466H83.3672C81.2072 32.3466 80.1272 33.0566 80.1272 34.4766C80.1272 35.1566 80.3972 35.6966 80.9372 36.0966C81.4772 36.4966 82.2272 36.6966 83.1872 36.6966ZM99.3698 25.5366C100.45 23.8566 102.35 23.0166 105.07 23.0166V26.5866C104.75 26.5266 104.46 26.4966 104.2 26.4966C102.74 26.4966 101.6 26.9266 100.78 27.7866C99.9598 28.6266 99.5498 29.8466 99.5498 31.4466V39.2166H95.7998V23.1966H99.3698V25.5366ZM114.283 23.0166C116.643 23.0166 118.443 23.5866 119.683 24.7266C120.943 25.8466 121.573 27.5466 121.573 29.8266V39.2166H118.033V37.2666C117.573 37.9666 116.913 38.5066 116.053 38.8866C115.213 39.2466 114.193 39.4266 112.993 39.4266C111.793 39.4266 110.743 39.2266 109.843 38.8266C108.943 38.4066 108.243 37.8366 107.743 37.1166C107.263 36.3766 107.023 35.5466 107.023 34.6266C107.023 33.1866 107.553 32.0366 108.613 31.1766C109.693 30.2966 111.383 29.8566 113.683 29.8566H117.823V29.6166C117.823 28.4966 117.483 27.6366 116.803 27.0366C116.143 26.4366 115.153 26.1366 113.833 26.1366C112.933 26.1366 112.043 26.2766 111.163 26.5566C110.303 26.8366 109.573 27.2266 108.973 27.7266L107.503 24.9966C108.343 24.3566 109.353 23.8666 110.533 23.5266C111.713 23.1866 112.963 23.0166 114.283 23.0166ZM113.773 36.6966C114.713 36.6966 115.543 36.4866 116.263 36.0666C117.003 35.6266 117.523 35.0066 117.823 34.2066V32.3466H113.953C111.793 32.3466 110.713 33.0566 110.713 34.4766C110.713 35.1566 110.983 35.6966 111.523 36.0966C112.063 36.4966 112.813 36.6966 113.773 36.6966ZM142.222 16.9566V39.2166H138.622V37.1466C138.002 37.9066 137.232 38.4766 136.312 38.8566C135.412 39.2366 134.412 39.4266 133.312 39.4266C131.772 39.4266 130.382 39.0866 129.142 38.4066C127.922 37.7266 126.962 36.7666 126.262 35.5266C125.562 34.2666 125.212 32.8266 125.212 31.2066C125.212 29.5866 125.562 28.1566 126.262 26.9166C126.962 25.6766 127.922 24.7166 129.142 24.0366C130.382 23.3566 131.772 23.0166 133.312 23.0166C134.372 23.0166 135.342 23.1966 136.222 23.5566C137.102 23.9166 137.852 24.4566 138.472 25.1766V16.9566H142.222ZM133.762 36.2166C134.662 36.2166 135.472 36.0166 136.192 35.6166C136.912 35.1966 137.482 34.6066 137.902 33.8466C138.322 33.0866 138.532 32.2066 138.532 31.2066C138.532 30.2066 138.322 29.3266 137.902 28.5666C137.482 27.8066 136.912 27.2266 136.192 26.8266C135.472 26.4066 134.662 26.1966 133.762 26.1966C132.862 26.1966 132.052 26.4066 131.332 26.8266C130.612 27.2266 130.042 27.8066 129.622 28.5666C129.202 29.3266 128.992 30.2066 128.992 31.2066C128.992 32.2066 129.202 33.0866 129.622 33.8466C130.042 34.6066 130.612 35.1966 131.332 35.6166C132.052 36.0166 132.862 36.2166 133.762 36.2166ZM147.128 23.1966H150.878V39.2166H147.128V23.1966ZM149.018 20.5566C148.338 20.5566 147.768 20.3466 147.308 19.9266C146.848 19.4866 146.618 18.9466 146.618 18.3066C146.618 17.6666 146.848 17.1366 147.308 16.7166C147.768 16.2766 148.338 16.0566 149.018 16.0566C149.698 16.0566 150.268 16.2666 150.728 16.6866C151.188 17.0866 151.418 17.5966 151.418 18.2166C151.418 18.8766 151.188 19.4366 150.728 19.8966C150.288 20.3366 149.718 20.5566 149.018 20.5566ZM160.75 39.4266C159.45 39.4266 158.18 39.2566 156.94 38.9166C155.7 38.5766 154.71 38.1466 153.97 37.6266L155.41 34.7766C156.13 35.2566 156.99 35.6466 157.99 35.9466C159.01 36.2266 160.01 36.3666 160.99 36.3666C163.23 36.3666 164.35 35.7766 164.35 34.5966C164.35 34.0366 164.06 33.6466 163.48 33.4266C162.92 33.2066 162.01 32.9966 160.75 32.7966C159.43 32.5966 158.35 32.3666 157.51 32.1066C156.69 31.8466 155.97 31.3966 155.35 30.7566C154.75 30.0966 154.45 29.1866 154.45 28.0266C154.45 26.5066 155.08 25.2966 156.34 24.3966C157.62 23.4766 159.34 23.0166 161.5 23.0166C162.6 23.0166 163.7 23.1466 164.8 23.4066C165.9 23.6466 166.8 23.9766 167.5 24.3966L166.06 27.2466C164.7 26.4466 163.17 26.0466 161.47 26.0466C160.37 26.0466 159.53 26.2166 158.95 26.5566C158.39 26.8766 158.11 27.3066 158.11 27.8466C158.11 28.4466 158.41 28.8766 159.01 29.1366C159.63 29.3766 160.58 29.6066 161.86 29.8266C163.14 30.0266 164.19 30.2566 165.01 30.5166C165.83 30.7766 166.53 31.2166 167.11 31.8366C167.71 32.4566 168.01 33.3366 168.01 34.4766C168.01 35.9766 167.36 37.1766 166.06 38.0766C164.76 38.9766 162.99 39.4266 160.75 39.4266ZM186.299 31.2966C186.299 31.5566 186.279 31.9266 186.239 32.4066H173.669C173.889 33.5866 174.459 34.5266 175.379 35.2266C176.319 35.9066 177.479 36.2466 178.859 36.2466C180.619 36.2466 182.069 35.6666 183.209 34.5066L185.219 36.8166C184.499 37.6766 183.589 38.3266 182.489 38.7666C181.389 39.2066 180.149 39.4266 178.769 39.4266C177.009 39.4266 175.459 39.0766 174.119 38.3766C172.779 37.6766 171.739 36.7066 170.999 35.4666C170.279 34.2066 169.919 32.7866 169.919 31.2066C169.919 29.6466 170.269 28.2466 170.969 27.0066C171.689 25.7466 172.679 24.7666 173.939 24.0666C175.199 23.3666 176.619 23.0166 178.199 23.0166C179.759 23.0166 181.149 23.3666 182.369 24.0666C183.609 24.7466 184.569 25.7166 185.249 26.9766C185.949 28.2166 186.299 29.6566 186.299 31.2966ZM178.199 26.0166C176.999 26.0166 175.979 26.3766 175.139 27.0966C174.319 27.7966 173.819 28.7366 173.639 29.9166H182.729C182.569 28.7566 182.079 27.8166 181.259 27.0966C180.439 26.3766 179.419 26.0166 178.199 26.0166Z" fill="#FFFCFC"/>
</svg>
