<svg width="30" height="20" viewBox="0 0 30 20" fill="none" xmlns="http://www.w3.org/2000/svg">
<path d="M29.52 1.44851L28.5373 0.4747C28.2286 0.168466 27.8169 0 27.3773 0C26.9378 0 26.5259 0.168466 26.2171 0.4747L12.409 14.1579L3.78196 5.60842C3.47317 5.30267 3.06122 5.13396 2.62171 5.13396C2.18244 5.13396 1.77073 5.30267 1.46171 5.60842L0.478781 6.58199C0.169756 6.88871 0 7.29718 0 7.73224C0 8.16755 0.169756 8.57578 0.478781 8.88201L10.2193 18.5341C10.2322 18.5522 10.2459 18.5691 10.2617 18.5846L11.2446 19.5425C11.5534 19.8475 11.9654 20 12.4083 20H12.4134C12.8532 20 13.2651 19.8475 13.5734 19.5425L14.5566 18.5761C14.5725 18.5607 14.5859 18.5479 14.5939 18.5348L29.5198 3.74515C30.16 3.11214 30.16 2.08225 29.52 1.44851Z" fill="#3378C7"/>
</svg>
