<svg width="70" height="70" viewBox="0 0 70 70" fill="none" xmlns="http://www.w3.org/2000/svg">
<path d="M68.8235 48.7519L55.3484 44.1248V42.5668C55.3484 41.8118 54.7278 41.1996 53.9622 41.1996C53.1968 41.1996 52.5761 41.8118 52.5761 42.5668V61.5263C51.7095 60.8427 50.8203 60.1244 49.933 59.3831C40.5789 51.5683 39.569 48.0739 39.569 46.9344C39.569 43.4493 46.3213 40.7033 52.8513 38.0478C54.7091 37.2924 56.5819 36.5305 58.3585 35.7295C58.361 35.7295 58.3632 35.7297 58.3657 35.7297H63.9103C64.6754 35.7297 65.2964 35.1159 65.2964 34.3626C65.2964 33.6077 64.6754 32.9939 63.9103 32.9939H63.5728C66.6941 30.9993 68.8151 28.6537 68.8151 25.6187C68.8151 22.6827 67.1716 20.1529 63.7904 17.8846C62.4383 16.9774 60.8827 16.1649 59.276 15.4205V12.0631L68.6101 7.57667C69.087 7.34739 69.3894 6.86983 69.389 6.34647C69.3886 5.82325 69.0853 5.3461 68.6079 5.11765L58.9559 0.225449C58.4738 0 58.3186 0.0051953 57.89 0.0051953C57.1246 0.0051953 56.5039 0.617421 56.5039 1.37238V14.2081C55.7897 13.9095 55.0821 13.621 54.395 13.3413C50.7223 11.8458 46.1514 9.98469 46.1514 8.42418C46.1514 6.3652 46.8875 4.79185 48.3394 3.748C49.4865 2.92318 50.6835 2.71919 50.6872 2.71851C51.4033 2.60996 51.9139 1.97558 51.8586 1.26301C51.8035 0.550429 51.2013 0 50.4767 0H40.0925C39.6038 0 37.6025 0.51789 35.4964 1.90558C32.5902 3.82032 31.0539 6.54717 31.0539 9.7915C31.0539 11.7922 32.0147 13.4247 33.4583 14.8571H29.0727C28.309 14.8571 27.6866 15.4694 27.6866 16.2242C27.6866 16.9776 28.309 17.5914 29.0727 17.5914H36.9819C37.7275 18.0797 38.4974 18.5546 39.2625 19.0264C41.599 20.4674 43.9906 21.9435 45.1811 23.5612H37.7129C36.9474 23.5612 36.3268 24.1735 36.3268 24.9284C36.3268 25.6835 36.9474 26.2956 37.7129 26.2956H45.5384C45.1327 26.6872 44.3343 27.2274 42.7624 27.8785C40.3703 28.8698 37.0127 29.7937 33.4579 30.7718C28.8267 32.0461 23.6129 33.4819 19.4488 35.387V30.5194L31.9563 26.199C32.5126 26.0069 32.8849 25.4888 32.8843 24.9075C32.8838 24.326 32.5106 23.8087 31.954 23.6174L19.4489 19.3237V18.1516C19.4489 17.3966 18.8283 16.7844 18.0628 16.7844C17.2972 16.7844 16.6766 17.3966 16.6766 18.1516V36.8287C12.7849 39.1526 10.8838 41.8458 10.8838 45.0199C10.8838 49.5657 13.6038 53.9521 17.1523 57.7409H8.88126C8.11569 57.7409 7.49512 58.3531 7.49512 59.1081C7.49512 59.863 8.11569 60.4752 8.88126 60.4752H19.9519C25.9664 65.8881 32.8461 69.5685 33.3559 69.838C33.5573 69.9444 33.7821 70 34.0104 70H59.9236C59.9244 70 59.9253 70 59.9264 70C60.6919 70 61.3125 69.3878 61.3125 68.6328C61.3125 68.1401 61.0482 67.7081 60.6516 67.4676C60.2922 67.2239 58.1439 65.7578 55.3482 63.659V55.9891L68.8257 51.3336C69.3819 51.1415 69.7541 50.6234 69.7536 50.0421C69.7533 49.4605 69.3801 48.943 68.8235 48.7519ZM59.2761 3.41783L64.8332 6.35044L59.2782 9.02041L59.2761 6.26348V3.41783ZM26.8776 24.9124L19.8675 27.3339L19.8624 22.5036L26.8776 24.9124ZM55.6054 67.2654H34.3671V67.2655C33.1675 66.6043 28.5435 63.9739 23.985 60.2888C23.2058 59.6588 22.4018 58.9757 21.6024 58.2488C21.5198 58.1482 21.4229 58.0594 21.3148 57.9852C17.3847 54.3531 13.6558 49.679 13.6558 45.0198C13.6558 39.0594 25.0486 35.9246 34.2028 33.4055C42.6339 31.0855 48.7255 29.4092 48.7255 25.6187C48.7255 21.6376 44.6619 19.1316 40.7321 16.708C37.3369 14.6141 33.8261 12.4489 33.8261 9.79137C33.8261 4.6029 39.3053 2.97759 40.2582 2.73437H45.3791C44.2927 3.9621 43.3789 5.78073 43.3789 8.42418C43.3789 11.8141 47.9935 13.693 53.337 15.8686C59.2926 18.2936 66.0429 21.0422 66.0429 25.6186C66.0429 29.7257 58.4732 32.804 51.7945 35.5199C44.0816 38.6562 36.7966 41.6187 36.7966 46.9342C36.7966 50.3399 40.5128 55.0989 48.1574 61.4831C50.8452 63.7278 53.5514 65.7705 55.6054 67.2654ZM55.352 53.0904L55.3485 49.7319V47.0202L64.163 50.047L55.352 53.0904Z" fill="#FFFBFB"/>
<path d="M18.0198 7.83838H1.38614C0.620575 7.83838 0 8.4506 0 9.20556C0 9.96052 0.620575 10.5727 1.38614 10.5727H18.0198C18.7854 10.5727 19.4059 9.96052 19.4059 9.20556C19.4059 8.4506 18.7854 7.83838 18.0198 7.83838Z" fill="#FFFBFB"/>
<path d="M9.14852 29.9868H1.38614C0.620574 29.9868 0 30.599 0 31.354C0 32.1091 0.620574 32.7212 1.38614 32.7212H9.14852C9.91408 32.7212 10.5347 32.1091 10.5347 31.354C10.5347 30.599 9.91408 29.9868 9.14852 29.9868Z" fill="#FFFBFB"/>
<path d="M8.73265 64.0298H2.49503C1.72946 64.0298 1.10889 64.642 1.10889 65.397C1.10889 66.1519 1.72946 66.7642 2.49503 66.7642H8.73265C9.49822 66.7642 10.1188 66.1519 10.1188 65.397C10.1188 64.642 9.49822 64.0298 8.73265 64.0298Z" fill="#FFFBFB"/>
<path d="M62.2378 59.5181H56.0002C55.2347 59.5181 54.614 60.1303 54.614 60.8853C54.614 61.6402 55.2347 62.2524 56.0002 62.2524H62.2378C63.0032 62.2524 63.6239 61.6402 63.6239 60.8853C63.6239 60.1303 63.0033 59.5181 62.2378 59.5181Z" fill="#FFFBFB"/>
<path d="M68.614 13.1704H62.3764C61.6109 13.1704 60.9902 13.7826 60.9902 14.5376C60.9902 15.2926 61.6109 15.9048 62.3764 15.9048H68.614C69.3794 15.9048 70.0001 15.2926 70.0001 14.5376C70.0001 13.7826 69.3796 13.1704 68.614 13.1704Z" fill="#FFFBFB"/>
<path d="M18.5282 14.8569C17.7643 14.8569 17.1421 15.4693 17.1421 16.2241C17.1421 16.9774 17.7645 17.5913 18.5282 17.5913C19.292 17.5913 19.9144 16.9774 19.9144 16.2241C19.9144 15.4693 19.292 14.8569 18.5282 14.8569Z" fill="#FFFBFB"/>
<path d="M64.4547 32.9938C63.691 32.9938 63.0686 33.6076 63.0686 34.3625C63.0686 35.1158 63.691 35.7297 64.4547 35.7297C65.2199 35.7297 65.8409 35.1158 65.8409 34.3625C65.8409 33.6076 65.22 32.9938 64.4547 32.9938Z" fill="#FFFBFB"/>
</svg>
