<svg width="49" height="48" viewBox="0 0 49 48" fill="none" xmlns="http://www.w3.org/2000/svg">
<g clip-path="url(#clip0)">
<path d="M44.2107 33.4299L35.1096 30.257V29.1886C35.1096 28.6709 34.6905 28.2511 34.1734 28.2511C33.6565 28.2511 33.2372 28.6709 33.2372 29.1886V42.1895C32.6519 41.7207 32.0514 41.2282 31.4521 40.7199C25.1343 35.3611 24.4522 32.965 24.4522 32.1836C24.4522 29.7938 29.0127 27.9108 33.4231 26.0899C34.6779 25.572 35.9428 25.0495 37.1427 24.5002C37.1444 24.5002 37.1459 24.5004 37.1475 24.5004H40.8923C41.4091 24.5004 41.8285 24.0795 41.8285 23.5629C41.8285 23.0453 41.4091 22.6244 40.8923 22.6244H40.6644C42.7725 21.2566 44.2051 19.6483 44.2051 17.5671C44.2051 15.5538 43.095 13.8191 40.8114 12.2637C39.8982 11.6417 38.8475 11.0845 37.7624 10.574V8.27183L44.0666 5.19543C44.3887 5.03821 44.5929 4.71074 44.5927 4.35187C44.5924 3.99309 44.3875 3.6659 44.0651 3.50924L37.5462 0.154593C37.2206 0 37.1157 0.00356249 36.8262 0.00356249C36.3093 0.00356249 35.89 0.423374 35.89 0.941061V9.74267C35.4077 9.53792 34.9298 9.34011 34.4657 9.1483C31.9852 8.12286 28.898 6.84664 28.898 5.77658C28.898 4.36471 29.3952 3.28584 30.3757 2.57006C31.1505 2.00446 31.959 1.86459 31.9615 1.86412C32.4451 1.78968 32.79 1.35468 32.7527 0.866061C32.7154 0.377437 32.3087 0 31.8193 0H24.8058C24.4757 0 23.1241 0.355124 21.7016 1.30668C19.7388 2.61965 18.7012 4.48949 18.7012 6.71417C18.7012 8.08611 19.3501 9.20548 20.3251 10.1877H17.3631C16.8472 10.1877 16.4269 10.6076 16.4269 11.1252C16.4269 11.6418 16.8472 12.0627 17.3631 12.0627H22.7049C23.2085 12.3975 23.7285 12.7232 24.2452 13.0467C25.8233 14.0348 27.4386 15.0469 28.2426 16.1563H23.1987C22.6816 16.1563 22.2625 16.5761 22.2625 17.0938C22.2625 17.6116 22.6816 18.0313 23.1987 18.0313H28.484C28.2099 18.2998 27.6707 18.6702 26.6091 19.1167C24.9935 19.7964 22.7257 20.43 20.3248 21.1006C17.1969 21.9745 13.6755 22.959 10.863 24.2654V20.9276L19.3106 17.965C19.6863 17.8333 19.9378 17.4781 19.9374 17.0794C19.937 16.6807 19.685 16.326 19.309 16.1948L10.8631 13.2505V12.4468C10.8631 11.9291 10.444 11.5093 9.92694 11.5093C9.40987 11.5093 8.99074 11.9291 8.99074 12.4468V25.254C6.36227 26.8475 5.07827 28.6943 5.07827 30.8708C5.07827 33.9879 6.91538 36.9957 9.31204 39.5937H3.72575C3.20869 39.5937 2.78955 40.0135 2.78955 40.5312C2.78955 41.0489 3.20869 41.4687 3.72575 41.4687H11.2029C15.265 45.1804 19.9116 47.7041 20.2559 47.8889C20.3919 47.9618 20.5438 48 20.698 48H38.1997C38.2003 48 38.2009 48 38.2016 48C38.7187 48 39.1378 47.5802 39.1378 47.0625C39.1378 46.7246 38.9593 46.4284 38.6914 46.2635C38.4487 46.0964 36.9978 45.091 35.1095 43.6519V38.3925L44.2122 35.2001C44.5879 35.0684 44.8393 34.7132 44.8389 34.3146C44.8387 33.9158 44.5867 33.5609 44.2107 33.4299ZM37.7624 2.34365L41.5157 4.35459L37.7638 6.18543L37.7624 4.29496V2.34365ZM15.8805 17.0828L11.1459 18.7432L11.1424 15.431L15.8805 17.0828ZM35.2832 46.1248H20.9389V46.1249C20.1287 45.6715 17.0056 43.8678 13.9268 41.3409C13.4005 40.9089 12.8575 40.4405 12.3176 39.942C12.2618 39.873 12.1964 39.8122 12.1234 39.7613C9.46895 37.2707 6.95048 34.0656 6.95048 30.8707C6.95048 26.7836 14.6452 24.634 20.8279 22.9066C26.5223 21.3158 30.6366 20.1663 30.6366 17.5671C30.6366 14.8372 27.892 13.1188 25.2378 11.4569C22.9447 10.0211 20.5735 8.53639 20.5735 6.71408C20.5735 3.15627 24.2742 2.04178 24.9177 1.875H28.3764C27.6426 2.71687 27.0255 3.96393 27.0255 5.77658C27.0255 8.10111 30.1422 9.38951 33.7511 10.8814C37.7736 12.5442 42.3327 14.4289 42.3327 17.567C42.3327 20.3834 37.2201 22.4941 32.7093 24.3565C27.5 26.5071 22.5797 28.5386 22.5797 32.1835C22.5797 34.5188 25.0897 37.7821 30.2528 42.1599C32.0682 43.699 33.8959 45.0998 35.2832 46.1248ZM35.1121 36.4048L35.1097 34.1019V32.2424L41.063 34.318L35.1121 36.4048Z" fill="#4D4242"/>
<path d="M13.2754 5.375H2.04106C1.52399 5.375 1.10486 5.79481 1.10486 6.3125C1.10486 6.83018 1.52399 7.25 2.04106 7.25H13.2754C13.7925 7.25 14.2116 6.83018 14.2116 6.3125C14.2116 5.79481 13.7925 5.375 13.2754 5.375Z" fill="#4D4242"/>
<path d="M7.28377 20.5625H2.04106C1.52399 20.5625 1.10486 20.9823 1.10486 21.5C1.10486 22.0178 1.52399 22.4375 2.04106 22.4375H7.28377C7.80083 22.4375 8.21996 22.0178 8.21996 21.5C8.21996 20.9823 7.80083 20.5625 7.28377 20.5625Z" fill="#4D4242"/>
<path d="M7.00242 43.9062H2.78953C2.27247 43.9062 1.85333 44.3261 1.85333 44.8437C1.85333 45.3614 2.27247 45.7812 2.78953 45.7812H7.00242C7.51948 45.7812 7.93862 45.3614 7.93862 44.8437C7.93862 44.3261 7.51948 43.9062 7.00242 43.9062Z" fill="#4D4242"/>
<path d="M43.1397 40.8125H38.9268C38.4098 40.8125 37.9906 41.2323 37.9906 41.75C37.9906 42.2677 38.4098 42.6875 38.9268 42.6875H43.1397C43.6567 42.6875 44.0759 42.2677 44.0759 41.75C44.0759 41.2323 43.6568 40.8125 43.1397 40.8125Z" fill="#4D4242"/>
<path d="M47.4462 9.03125H43.2333C42.7163 9.03125 42.2971 9.45106 42.2971 9.96875C42.2971 10.4864 42.7163 10.9062 43.2333 10.9062H47.4462C47.9632 10.9062 48.3824 10.4864 48.3824 9.96875C48.3824 9.45106 47.9633 9.03125 47.4462 9.03125Z" fill="#4D4242"/>
<path d="M13.6183 10.1875C13.1023 10.1875 12.6821 10.6074 12.6821 11.125C12.6821 11.6416 13.1024 12.0625 13.6183 12.0625C14.1341 12.0625 14.5545 11.6416 14.5545 11.125C14.5545 10.6074 14.1341 10.1875 13.6183 10.1875Z" fill="#4D4242"/>
<path d="M44.637 22.624C44.1212 22.624 43.7008 23.045 43.7008 23.5626C43.7008 24.0791 44.1212 24.5001 44.637 24.5001C45.1538 24.5001 45.5732 24.0791 45.5732 23.5626C45.5732 23.045 45.1539 22.624 44.637 22.624Z" fill="#4D4242"/>
</g>
<defs>
<clipPath id="clip0">
<rect x="0.776733" width="47.9334" height="48" fill="white"/>
</clipPath>
</defs>
</svg>
