<svg width="70" height="70" viewBox="0 0 70 70" fill="none" xmlns="http://www.w3.org/2000/svg">
<path d="M42.7093 48.0609C43.1095 47.6094 42.8155 48.0317 44.3123 45.6365C44.8065 44.8503 44.9653 43.899 44.7533 42.995C44.688 42.7115 44.0148 43.9132 50.7407 33.1466C55.3338 25.7962 61.3818 17.0819 66.5023 10.0932C68.271 7.73761 67.6013 3.78356 63.7233 1.36143C60.6725 -0.5485 56.6533 -0.532166 54.8578 2.33332C54.2045 3.38337 49.7245 12.4185 41.1915 26.4718C40.9056 26.8381 41.3781 26.1101 35 36.3166C28.6463 26.1498 29.0908 26.8335 28.8015 26.4613C19.1508 10.5739 16.1618 3.96674 15.1421 2.34032C13.3548 -0.519332 9.35077 -0.560168 6.2766 1.36143C2.33326 3.82673 1.76043 7.78078 3.48943 10.0827C13.7806 24.1255 18.7179 32.2797 25.3061 42.8316C25.0263 43.7806 25.1656 44.8038 25.6888 45.6435C27.2358 48.1111 26.8706 47.5756 27.2906 48.0527C24.6003 51.9835 21.7151 56.0658 18.9 59.9102C18.0879 61.009 17.7797 62.4005 18.0518 63.7394C19.1123 69.4331 28.0933 72.5027 30.7405 67.3236C32.1327 64.679 33.5521 62.0515 34.9988 59.4412C36.316 61.8236 37.7078 64.4044 39.2443 67.3154C41.9055 72.5109 50.8853 69.4237 51.9423 63.7301C52.2137 62.3993 51.9094 61.0159 51.1047 59.9219C48.3933 56.214 45.2772 51.8283 42.7093 48.0609ZM44.5853 54.8361L36.68 56.431C37.9458 54.1781 38.787 52.6812 40.7516 49.3326C42.2333 51.5016 43.0943 52.7208 44.5853 54.8361ZM27.3816 52.036L35.5483 53.6834C35.007 54.6366 34.4656 55.5886 33.929 56.55L25.4193 54.8361C26.0773 53.9027 26.7341 52.9693 27.3816 52.036ZM32.2128 44.9364C32.7005 45.2654 30.6238 43.9587 38.2515 48.7248C38.423 48.831 38.6015 48.3409 36.764 51.5483L28.8166 49.9498C29.967 48.2791 31.099 46.6095 32.2128 44.9411V44.9364ZM8.63327 13.2201L17.4276 11.4443C17.9549 12.4026 18.4866 13.3593 19.0224 14.3145L10.6073 16.019C9.95005 15.0833 9.29205 14.1503 8.63327 13.2201ZM20.2241 16.4519C21.7175 19.0802 23.2365 21.6858 24.7811 24.269C22.145 23.9723 19.6525 25.5329 18.7681 28.034C16.5903 24.7042 14.3569 21.393 12.0679 18.1005L20.2241 16.4519ZM49.7852 16.4519L57.9413 18.1052C55.6609 21.3907 53.4287 24.6999 51.2447 28.0329C50.3523 25.5368 47.8612 23.9817 45.227 24.276C46.7639 21.6882 48.2817 19.0798 49.7805 16.4507L49.7852 16.4519ZM52.5852 11.4443L61.3667 13.2201C60.7024 14.1534 60.0413 15.0868 59.3833 16.0202L50.9833 14.3133C51.5169 13.3589 52.0481 12.4026 52.577 11.4443H52.5852ZM41.0981 46.3797C40.9341 46.6424 40.6724 46.8291 40.3706 46.8987C40.0689 46.9683 39.7518 46.9151 39.4893 46.7507L33.5533 43.0428C33.2904 42.879 33.1034 42.6173 33.0336 42.3155C32.9638 42.0137 33.0169 41.6965 33.1811 41.4339L34.419 39.4505C34.7604 38.9047 35.4793 38.7387 36.0255 39.0794L41.9626 42.7908C42.225 42.9548 42.4115 43.2163 42.4811 43.5178C42.5507 43.8193 42.4976 44.1362 42.3336 44.3986L41.0981 46.3797ZM43.1223 27.7937C44.2383 26.4574 46.1667 26.1446 47.6479 27.0595C49.129 27.9744 49.7126 29.8388 49.0175 31.435C47.082 34.4195 45.1115 37.5604 43.1456 40.7817L41.2195 39.5788L46.165 31.6625C46.3861 31.3082 46.4014 30.8629 46.2052 30.4942C46.0089 30.1256 45.6309 29.8896 45.2135 29.8753C44.7961 29.8609 44.4028 30.0703 44.1816 30.4246C37.6285 40.9135 39.5418 37.7295 39.235 38.3421L37.31 37.1357C39.3341 33.9692 41.2918 30.8318 43.1223 27.7937ZM26.8543 40.7805C24.8978 37.5755 22.9355 34.4475 21.0011 31.463C20.2993 29.8697 20.8751 28.0028 22.3525 27.0817C23.8299 26.1606 25.7596 26.4655 26.8811 27.7972C28.7035 30.8307 30.6623 33.9645 32.69 37.131L30.758 38.3374L25.8125 30.4211C25.4706 29.8734 24.7496 29.7065 24.2019 30.0484C23.6542 30.3902 23.4873 31.1113 23.8291 31.659L28.7735 39.5741L26.8543 40.7805ZM56.7432 3.73339C57.2082 2.91644 58.0679 2.40353 59.0077 2.38232C62.552 2.0568 66.5187 6.18352 64.6333 8.70366C64.0418 9.50987 63.4608 10.3301 62.8752 11.1421L53.7635 9.30219C54.7676 7.45098 55.7608 5.59471 56.7432 3.73339ZM4.94193 6.68988C5.6326 2.98085 11.8008 0.782737 13.2731 3.77306C14.2461 5.62116 15.2354 7.46615 16.2411 9.30802L7.1306 11.1421C6.54027 10.3254 5.96393 9.50287 5.36427 8.69199C4.94451 8.11535 4.79085 7.38695 4.94193 6.68988ZM27.6663 44.3986C27.4487 44.0556 27.4278 43.6233 27.6115 43.261C27.8751 42.8363 27.4773 43.1443 30.835 41.0442C30.6512 41.6429 30.6319 42.28 30.779 42.8888C30.0883 43.9311 29.3883 44.9738 28.679 46.0168L27.6663 44.3986ZM28.672 66.249C27.7095 68.1357 24.9106 67.9081 22.9203 66.6644C20.979 65.451 19.4751 63.037 20.7783 61.2974C21.8431 59.8429 22.9001 58.3818 23.9493 56.914L32.7495 58.6945C31.372 61.1975 30.0129 63.7157 28.672 66.249ZM49.6522 63.3042C48.9708 66.9759 42.8575 69.2452 41.3175 66.2385C39.8533 63.4617 38.5175 60.9883 37.2575 58.6956L46.0588 56.9152C47.1088 58.3806 48.1588 59.8472 49.2333 61.3126C49.6498 61.8867 49.8022 62.611 49.6522 63.3042Z" fill="#FFFDFD"/>
<path d="M17.9562 34.5187C16.8467 33.1781 15.5914 32.7347 11.1965 30.5518C10.9916 30.4108 10.7488 30.3351 10.5 30.3348V23.3344C10.5 21.4013 8.93301 19.8342 7.00001 19.8342C5.06701 19.8342 3.5 21.4013 3.5 23.3344V30.3348C2.85567 30.3348 2.33334 30.8571 2.33334 31.5015C2.33334 32.1459 2.85567 32.6682 3.5 32.6682V58.3363H1.16667C0.522335 58.3363 0 58.8586 0 59.503C0 60.1474 0.522335 60.6697 1.16667 60.6697H3.63067L4.49167 67.8778C4.6991 69.1129 5.77475 70.0132 7.02704 69.9998C8.27933 69.9864 9.33551 69.0634 9.51651 67.8241L10.3693 60.6697H12.8334C13.4777 60.6697 14 60.1474 14 59.503C14 58.8586 13.4777 58.3363 12.8334 58.3363H10.5V35.1335C11.4193 37.9337 12.3317 41.2005 15.2647 41.2005C18.501 41.2029 20.0527 37.0516 17.9562 34.5187ZM5.83334 23.3344C5.83334 22.69 6.35568 22.1677 7.00001 22.1677C7.64434 22.1677 8.16668 22.69 8.16668 23.3344V30.3348H5.83334V23.3344ZM8.16668 32.6682V58.3363H5.83334V32.6682H8.16668ZM7.20768 67.4951C7.17268 67.6969 6.81918 67.6444 6.80051 67.5488L5.98384 60.6651H8.01968L7.20768 67.4951ZM16.541 37.6432C16.3345 38.7551 15.141 39.3629 14.364 38.3549C13.5282 36.9429 12.9092 35.4133 12.5277 33.8175L13.6454 34.3682C15.2904 35.1627 16.8549 35.9257 16.5352 37.6432H16.541Z" fill="#FFFDFD"/>
<path d="M68.8333 58.3363H66.5V32.6682C67.1443 32.6682 67.6666 32.1459 67.6666 31.5015C67.6666 30.8571 67.1443 30.3348 66.5 30.3348V23.3344C66.5 21.4013 64.933 19.8342 63 19.8342C61.067 19.8342 59.5 21.4013 59.5 23.3344V30.3348C59.2508 30.3314 59.0065 30.4042 58.8 30.5436C54.3328 32.7686 53.1241 33.2073 52.0403 34.5105C50.1666 36.774 51.1758 40.4293 53.928 41.0967C55.2702 41.418 56.6737 40.8973 57.4816 39.7783C58.4102 38.3543 59.0925 36.7841 59.5 35.1335V58.3363H57.1666C56.5223 58.3363 56 58.8586 56 59.503C56 60.1474 56.5223 60.6697 57.1666 60.6697H59.6306L60.4916 67.8778C60.6991 69.1129 61.7747 70.0132 63.027 69.9998C64.2793 69.9864 65.3355 69.0634 65.5165 67.8241L66.3693 60.6697H68.8333C69.4776 60.6697 70 60.1474 70 59.503C70 58.8586 69.4776 58.3363 68.8333 58.3363ZM55.6418 38.3549C54.8683 39.3536 53.6725 38.7667 53.4648 37.642C53.1008 35.6889 55.0981 34.9889 57.4781 33.8175C57.0879 35.4105 56.4694 36.9388 55.6418 38.3549ZM64.1666 58.3363H61.8333V32.6682H64.1666V58.3363ZM63 22.1677C63.6443 22.1677 64.1666 22.69 64.1666 23.3344V30.3348H61.8333V23.3344C61.8333 22.69 62.3556 22.1677 63 22.1677ZM63.2076 67.4951C63.1726 67.6969 62.8191 67.6444 62.8005 67.5488L61.9838 60.6651H64.0231L63.2076 67.4951Z" fill="#FFFDFD"/>
<path d="M27.8706 14.0007C29.6947 14.1984 31.4201 13.1319 32.0589 11.4118C32.1359 11.2636 32.2129 11.1108 32.2993 10.9591C32.8303 9.96042 33.8691 9.3363 35.0001 9.3363C36.1311 9.3363 37.1699 9.96042 37.7009 10.9591C37.7873 11.1108 37.8643 11.2636 37.9413 11.4118C38.5801 13.1319 40.3055 14.1984 42.1296 14.0007C45.9579 13.9603 49.0312 10.8289 49.0001 7.00037V5.83364H50.1668C50.8111 5.83364 51.3335 5.31128 51.3335 4.66691C51.3335 4.02255 50.8111 3.50019 50.1668 3.50019H49.0001V2.62514C49.0072 1.18466 47.847 0.0102763 46.4066 0H23.5936C22.1532 0.0102763 20.993 1.18466 21.0001 2.62514V3.50019H19.8334C19.1891 3.50019 18.6667 4.02255 18.6667 4.66691C18.6667 5.31128 19.1891 5.83364 19.8334 5.83364H21.0001V7.00037C20.969 10.8289 24.0423 13.9603 27.8706 14.0007ZM23.3334 2.62514C23.3254 2.473 23.4415 2.34285 23.5936 2.33346H46.4066C46.5587 2.34285 46.6748 2.473 46.6668 2.62514V7.00037C46.6992 9.54076 44.6698 11.6283 42.1296 11.6673C40.4414 11.6673 40.5021 11.2006 39.7403 9.82386C38.7957 8.08703 36.9771 7.00582 35.0001 7.00582C33.0231 7.00582 31.2045 8.08703 30.2599 9.82386C29.4923 11.2006 29.5541 11.6673 27.8706 11.6673C25.3304 11.6283 23.301 9.54076 23.3334 7.00037V2.62514Z" fill="#FFFDFD"/>
</svg>
