<svg width="60" height="60" viewBox="0 0 60 60" fill="none" xmlns="http://www.w3.org/2000/svg">
<path d="M36.6081 41.1951C36.9511 40.8081 36.6991 41.1701 37.9821 39.117C38.4056 38.4431 38.5418 37.6278 38.3601 36.8529C38.3041 36.6098 37.7271 37.6399 43.4921 28.4114C47.4291 22.1111 52.6131 14.6417 57.0021 8.65136C58.5181 6.63225 57.9441 3.24307 54.6201 1.16696C52.0051 -0.470126 48.5601 -0.456125 47.0211 2.00001C46.4611 2.90005 42.6211 10.6445 35.307 22.6901C35.062 23.0041 35.467 22.3801 30 31.1286C24.554 22.4141 24.935 23.0001 24.687 22.6811C16.415 9.06338 13.853 3.40008 12.979 2.00601C11.447 -0.445124 8.01502 -0.480126 5.38001 1.16696C2.00001 3.28007 1.50901 6.66925 2.99101 8.64236C11.812 20.679 16.044 27.6684 21.691 36.7128C21.4512 37.5262 21.5706 38.4033 22.019 39.123C23.345 41.2381 23.032 40.7791 23.392 41.1881C21.086 44.5573 18.613 48.0565 16.2 51.3516C15.504 52.2934 15.2398 53.4862 15.473 54.6338C16.382 59.5141 24.08 62.1452 26.349 57.706C27.5424 55.4392 28.759 53.1871 29.999 50.9496C31.128 52.9917 32.321 55.2038 33.638 57.699C35.919 62.1522 43.6161 59.5061 44.5221 54.6258C44.7547 53.4852 44.4939 52.2993 43.8041 51.3616C41.4801 48.1835 38.8091 44.4243 36.6081 41.1951ZM38.2161 47.0024L31.44 48.3695C32.525 46.4384 33.246 45.1553 34.93 42.2851C36.2001 44.1442 36.9381 45.1893 38.2161 47.0024ZM23.47 44.6023L30.47 46.0143C30.006 46.8314 29.542 47.6474 29.082 48.4715L21.788 47.0024C22.352 46.2024 22.915 45.4023 23.47 44.6023ZM27.611 38.5169C28.029 38.799 26.249 37.6789 32.787 41.7641C32.934 41.8551 33.087 41.4351 31.512 44.1842L24.7 42.8142C25.686 41.3821 26.6564 39.951 27.611 38.5209V38.5169ZM7.40002 11.3315L14.938 9.80942C15.39 10.6308 15.8457 11.4508 16.305 12.2696L9.09202 13.7306C8.52868 12.9286 7.96468 12.1289 7.40002 11.3315ZM17.335 14.1016C18.615 16.3544 19.917 18.5879 21.241 20.802C18.9815 20.5477 16.8451 21.8854 16.087 24.0292C14.2204 21.175 12.306 18.3369 10.344 15.5147L17.335 14.1016ZM42.6731 14.1016L49.6641 15.5187C47.7094 18.3349 45.7961 21.1714 43.9241 24.0282C43.1591 21.8887 41.024 20.5557 38.7661 20.808C40.0834 18.5899 41.3844 16.3541 42.6691 14.1006L42.6731 14.1016ZM45.0731 9.80942L52.6001 11.3315C52.0307 12.1315 51.4641 12.9316 50.9001 13.7316L43.7001 12.2686C44.1574 11.4505 44.6127 10.6308 45.0661 9.80942H45.0731ZM35.2271 39.754C35.0865 39.9792 34.8621 40.1393 34.6035 40.1989C34.3448 40.2586 34.073 40.2129 33.848 40.072L28.76 36.8939C28.5347 36.7534 28.3744 36.5292 28.3146 36.2705C28.2548 36.0118 28.3002 35.7399 28.441 35.5148L29.502 33.8147C29.7947 33.3469 30.4109 33.2046 30.879 33.4967L35.9681 36.6778C36.193 36.8184 36.3528 37.0426 36.4124 37.301C36.4721 37.5595 36.4266 37.831 36.2861 38.0559L35.2271 39.754ZM36.9621 23.8232C37.9186 22.6778 39.5715 22.4097 40.8411 23.1938C42.1107 23.978 42.6109 25.5762 42.0151 26.9443C40.3561 29.5025 38.6671 32.1946 36.9821 34.9558L35.3311 33.9247L39.5701 27.1393C39.7596 26.8357 39.7727 26.4539 39.6045 26.1379C39.4363 25.8219 39.1122 25.6197 38.7545 25.6074C38.3967 25.5951 38.0596 25.7746 37.8701 26.0783C32.253 35.0688 33.893 32.3396 33.63 32.8646L31.98 31.8306C33.715 29.1164 35.3931 26.4273 36.9621 23.8232ZM23.018 34.9548C21.341 32.2076 19.659 29.5265 18.001 26.9683C17.3994 25.6026 17.893 24.0024 19.1594 23.2129C20.4257 22.4234 22.0797 22.6847 23.041 23.8262C24.603 26.4263 26.282 29.1124 28.02 31.8266L26.364 32.8606L22.125 26.0753C21.832 25.6058 21.214 25.4628 20.7445 25.7558C20.2751 26.0488 20.132 26.6669 20.425 27.1363L24.663 33.9207L23.018 34.9548ZM48.6371 3.20007C49.0357 2.49982 49.7726 2.06018 50.5781 2.04201C53.6161 1.76299 57.0161 5.30018 55.4001 7.4603C54.8931 8.15133 54.3951 8.85437 53.8931 9.55041L46.0831 7.97332C46.9437 6.38657 47.7951 4.79549 48.6371 3.20007ZM4.23601 5.7342C4.82801 2.55504 10.115 0.670935 11.377 3.23407C12.211 4.81816 13.059 6.39957 13.921 7.97832L6.11201 9.55041C5.60601 8.85037 5.11201 8.14533 4.59801 7.45029C4.23822 6.95604 4.10652 6.33169 4.23601 5.7342ZM23.714 38.0559C23.5275 37.7619 23.5096 37.3914 23.667 37.0809C23.893 36.7169 23.552 36.9809 26.43 35.1808C26.2726 35.694 26.256 36.2401 26.382 36.7619C25.79 37.6552 25.19 38.549 24.582 39.443L23.714 38.0559ZM24.576 56.7849C23.751 58.402 21.352 58.207 19.646 57.1409C17.982 56.1009 16.693 54.0318 17.81 52.5407C18.7227 51.294 19.6287 50.0416 20.528 48.7835L28.071 50.3096C26.8904 52.455 25.7254 54.6135 24.576 56.7849ZM42.5591 54.2608C41.9751 57.408 36.7351 59.3531 35.4151 56.7759C34.1601 54.3958 33.015 52.2757 31.935 50.3106L39.4791 48.7845C40.3791 50.0406 41.2791 51.2976 42.2001 52.5537C42.5571 53.0458 42.6876 53.6666 42.5591 54.2608Z" fill="#040404"/>
<path d="M15.391 29.5874C14.44 28.4383 13.364 28.0583 9.59701 26.1872C9.42135 26.0664 9.21323 26.0015 9.00001 26.0012V20.0009C9.00001 18.3439 7.65686 17.0007 6.00001 17.0007C4.34315 17.0007 3 18.3439 3 20.0009V26.0012C2.44772 26.0012 2 26.4489 2 27.0013C2 27.5536 2.44772 28.0013 3 28.0013V50.0025H1C0.447716 50.0025 0 50.4502 0 51.0025C0 51.5548 0.447716 52.0026 1 52.0026H3.112L3.85 58.1809C4.0278 59.2396 4.94979 60.0113 6.02318 59.9998C7.09657 59.9883 8.00186 59.1971 8.15701 58.1349L8.88801 52.0026H11C11.5523 52.0026 12 51.5548 12 51.0025C12 50.4502 11.5523 50.0025 11 50.0025H9.00001V30.1144C9.78801 32.5146 10.57 35.3147 13.084 35.3147C15.858 35.3167 17.188 31.7585 15.391 29.5874ZM5.00001 20.0009C5.00001 19.4486 5.44772 19.0008 6.00001 19.0008C6.55229 19.0008 7.00001 19.4486 7.00001 20.0009V26.0012H5.00001V20.0009ZM7.00001 28.0013V50.0025H5.00001V28.0013H7.00001ZM6.17801 57.8529C6.14801 58.0259 5.84501 57.9809 5.82901 57.8989L5.12901 51.9986H6.87401L6.17801 57.8529ZM14.178 32.2655C14.001 33.2186 12.978 33.7396 12.312 32.8756C11.5956 31.6653 11.065 30.3543 10.738 28.9864L11.696 29.4584C13.106 30.1394 14.447 30.7935 14.173 32.2655H14.178Z" fill="#040404"/>
<path d="M59 50.0025H57V28.0013C57.5523 28.0013 58 27.5536 58 27.0013C58 26.4489 57.5523 26.0012 57 26.0012V20.0009C57 18.3439 55.6569 17.0007 54 17.0007C52.3431 17.0007 51 18.3439 51 20.0009V26.0012C50.7864 25.9983 50.5771 26.0607 50.4 26.1802C46.571 28.0873 45.535 28.4633 44.606 29.5804C43 31.5205 43.865 34.6537 46.224 35.2257C47.3745 35.5011 48.5775 35.0548 49.27 34.0956C50.0659 32.875 50.6508 31.5292 51 30.1144V50.0025H49C48.4477 50.0025 48 50.4502 48 51.0025C48 51.5548 48.4477 52.0026 49 52.0026H51.112L51.85 58.1809C52.0278 59.2396 52.9498 60.0113 54.0232 59.9998C55.0966 59.9883 56.0019 59.1971 56.157 58.1349L56.888 52.0026H59C59.5523 52.0026 60 51.5548 60 51.0025C60 50.4502 59.5523 50.0025 59 50.0025ZM47.693 32.8756C47.03 33.7316 46.005 33.2286 45.827 32.2645C45.515 30.5905 47.227 29.9904 49.267 28.9864C48.9325 30.3519 48.4023 31.6618 47.693 32.8756ZM55 50.0025H53V28.0013H55V50.0025ZM54 19.0008C54.5523 19.0008 55 19.4486 55 20.0009V26.0012H53V20.0009C53 19.4486 53.4477 19.0008 54 19.0008ZM54.178 57.8529C54.148 58.0259 53.845 57.9809 53.829 57.8989L53.129 51.9986H54.877L54.178 57.8529Z" fill="#040404"/>
<path d="M23.889 12.0006C25.4526 12.17 26.9314 11.2559 27.479 9.78152C27.545 9.65451 27.611 9.52351 27.685 9.3935C28.1402 8.53751 29.0306 8.00255 30 8.00255C30.9695 8.00255 31.8598 8.53751 32.315 9.3935C32.389 9.52351 32.455 9.65451 32.521 9.78152C33.0686 11.2559 34.5475 12.17 36.111 12.0006C39.3924 11.966 42.0267 9.28193 42 6.00032V5.00027H43C43.5523 5.00027 44 4.55253 44 4.00021C44 3.4479 43.5523 3.00016 43 3.00016H42V2.25012C42.0061 1.01542 41.0116 0.00880826 39.777 0H20.223C18.9884 0.00880826 17.9939 1.01542 18 2.25012V3.00016H17C16.4477 3.00016 16 3.4479 16 4.00021C16 4.55253 16.4477 5.00027 17 5.00027H18V6.00032C17.9734 9.28193 20.6076 11.966 23.889 12.0006ZM20 2.25012C19.9932 2.11972 20.0927 2.00816 20.223 2.00011H39.777C39.9074 2.00816 40.0069 2.11972 40 2.25012V6.00032C40.0278 8.17779 38.2883 9.96708 36.111 10.0005C34.664 10.0005 34.716 9.60051 34.063 8.42045C33.2534 6.93174 31.6946 6.00499 30 6.00499C28.3055 6.00499 26.7466 6.93174 25.937 8.42045C25.279 9.60051 25.332 10.0005 23.889 10.0005C21.7117 9.96708 19.9722 8.17779 20 6.00032V2.25012Z" fill="#040404"/>
</svg>
