<svg width="49" height="48" viewBox="0 0 49 48" fill="none" xmlns="http://www.w3.org/2000/svg">
<g clip-path="url(#clip0)">
<path d="M29.4801 32.9541C29.7541 32.6445 29.5528 32.9341 30.5778 31.2917C30.9162 30.7527 31.0249 30.1004 30.8798 29.4805C30.835 29.2861 30.3741 30.1101 34.9797 22.7277C38.1249 17.6877 42.2664 11.7125 45.7727 6.92053C46.9838 5.30533 46.5253 2.59413 43.8697 0.933325C41.7806 -0.376275 39.0285 -0.365075 37.799 1.59973C37.3516 2.31973 34.2839 8.51493 28.4408 18.1509C28.245 18.4021 28.5686 17.9029 24.2011 24.9013C19.8503 17.9301 20.1547 18.3989 19.9566 18.1437C13.3481 7.25013 11.3014 2.71973 10.6031 1.60453C9.37924 -0.356275 6.63745 -0.384275 4.53238 0.933325C1.83213 2.62373 1.43987 5.33493 2.62383 6.91333C9.67084 16.5421 13.0517 22.1333 17.5631 29.3685C17.3715 30.0192 17.4668 30.7208 17.8251 31.2965C18.8844 32.9885 18.6344 32.6213 18.922 32.9485C17.0797 35.6437 15.1041 38.4429 13.1764 41.0789C12.6203 41.8323 12.4093 42.7865 12.5956 43.7045C13.3218 47.6085 19.4716 49.7133 21.2843 46.1621C22.2377 44.3488 23.2096 42.5472 24.2003 40.7573C25.1022 42.3909 26.0553 44.1605 27.1074 46.1565C28.9297 49.7189 35.0788 47.6021 35.8025 43.6981C35.9884 42.7857 35.78 41.8371 35.2289 41.0869C33.3723 38.5445 31.2385 35.5373 29.4801 32.9541ZM30.7647 37.5997L25.3515 38.6933C26.2183 37.1485 26.7943 36.1221 28.1396 33.8261C29.1542 35.3133 29.7438 36.1493 30.7647 37.5997ZM18.9843 35.6797L24.5765 36.8093C24.2059 37.4629 23.8352 38.1157 23.4677 38.7749L17.6406 37.5997C18.0911 36.9597 18.5409 36.3197 18.9843 35.6797ZM22.2925 30.8117C22.6264 31.0373 21.2044 30.1413 26.4276 33.4093C26.545 33.4821 26.6672 33.1461 25.409 35.3453L19.9669 34.2493C20.7546 33.1037 21.5298 31.9589 22.2925 30.8149V30.8117ZM6.14613 9.06453L12.1682 7.84693C12.5293 8.50399 12.8933 9.15999 13.2603 9.81493L7.49786 10.9837C7.04781 10.3421 6.59724 9.70239 6.14613 9.06453ZM14.0831 11.2805C15.1057 13.0827 16.1458 14.8693 17.2036 16.6405C15.3985 16.4371 13.6917 17.5072 13.0861 19.2221C11.5948 16.9389 10.0655 14.6685 8.49807 12.4109L14.0831 11.2805ZM34.3254 11.2805L39.9104 12.4141C38.3489 14.6669 36.8203 16.936 35.3248 19.2213C34.7137 17.5099 33.008 16.4435 31.2041 16.6453C32.2565 14.8709 33.2959 13.0824 34.3222 11.2797L34.3254 11.2805ZM36.2427 7.84693L42.256 9.06453C41.8011 9.70453 41.3484 10.3445 40.8979 10.9845L35.1459 9.81413C35.5112 9.15973 35.875 8.50399 36.2371 7.84693H36.2427ZM28.3769 31.8013C28.2646 31.9815 28.0853 32.1095 27.8787 32.1572C27.672 32.205 27.4549 32.1684 27.2752 32.0557L23.2104 29.5133C23.0304 29.401 22.9024 29.2216 22.8546 29.0146C22.8068 28.8077 22.8431 28.5902 22.9556 28.4101L23.8032 27.0501C24.037 26.6759 24.5293 26.5621 24.9033 26.7957L28.9688 29.3405C29.1485 29.453 29.2762 29.6323 29.3239 29.839C29.3715 30.0458 29.3352 30.263 29.2229 30.4429L28.3769 31.8013ZM29.7629 19.0573C30.5271 18.1411 31.8476 17.9266 32.8619 18.5539C33.8761 19.1812 34.2757 20.4597 33.7997 21.5541C32.4744 23.6005 31.125 25.7541 29.7789 27.9629L28.4599 27.1381L31.8464 21.7101C31.9979 21.4672 32.0083 21.1618 31.8739 20.909C31.7395 20.6562 31.4807 20.4945 31.1949 20.4846C30.9091 20.4748 30.6397 20.6184 30.4883 20.8613C26.001 28.0533 27.3111 25.8701 27.101 26.2901L25.7829 25.4629C27.1689 23.2917 28.5095 21.1405 29.7629 19.0573ZM18.6232 27.9621C17.2835 25.7645 15.9397 23.6197 14.6152 21.5733C14.1346 20.4808 14.5289 19.2007 15.5405 18.5691C16.5522 17.9376 17.8736 18.1466 18.6416 19.0597C19.8894 21.1397 21.2308 23.2885 22.6193 25.4597L21.2963 26.2869L17.9098 20.8589C17.6757 20.4834 17.182 20.3689 16.8069 20.6033C16.4319 20.8377 16.3176 21.3322 16.5517 21.7077L19.9374 27.1349L18.6232 27.9621ZM39.09 2.55973C39.4084 1.99956 39.9971 1.64787 40.6406 1.63333C43.0677 1.41013 45.7839 4.23973 44.4929 5.96773C44.0878 6.52053 43.69 7.08293 43.2889 7.63973L37.0496 6.37813C37.7372 5.10879 38.4173 3.83599 39.09 2.55973ZM3.61844 4.58693C4.09139 2.04373 8.31512 0.536525 9.32332 2.58693C9.9896 3.85413 10.6671 5.11919 11.3557 6.38213L5.11716 7.63973C4.71292 7.07973 4.31827 6.51573 3.90764 5.95973C3.62021 5.56434 3.51499 5.06489 3.61844 4.58693ZM19.1792 30.4429C19.0302 30.2078 19.0159 29.9114 19.1417 29.6629C19.3222 29.3717 19.0498 29.5829 21.349 28.1429C21.2232 28.5535 21.21 28.9903 21.3107 29.4077C20.8377 30.1224 20.3584 30.8373 19.8727 31.5525L19.1792 30.4429ZM19.8679 45.4253C19.2088 46.7189 17.2923 46.5629 15.9293 45.7101C14.6 44.8781 13.5702 43.2229 14.4626 42.0301C15.1917 41.0328 15.9155 40.0309 16.634 39.0245L22.66 40.2453C21.7168 41.9616 20.7861 43.6883 19.8679 45.4253ZM34.2343 43.4061C33.7678 45.9237 29.5816 47.4797 28.5271 45.4181C27.5244 43.5141 26.6097 41.8181 25.7469 40.2461L31.7737 39.0253C32.4927 40.0301 33.2117 41.0357 33.9475 42.0405C34.2327 42.4342 34.337 42.9308 34.2343 43.4061Z" fill="#4D4242"/>
<path d="M12.5301 23.6684C11.7704 22.7492 10.9107 22.4452 7.90133 20.9484C7.76099 20.8517 7.59472 20.7999 7.42439 20.7996V15.9996C7.42439 14.6741 6.35136 13.5996 5.02772 13.5996C3.70407 13.5996 2.63105 14.6741 2.63105 15.9996V20.7996C2.18983 20.7996 1.83216 21.1578 1.83216 21.5996C1.83216 22.0414 2.18983 22.3996 2.63105 22.3996V39.9996H1.03327C0.59205 39.9996 0.234375 40.3578 0.234375 40.7996C0.234375 41.2414 0.59205 41.5996 1.03327 41.5996H2.72052L3.3101 46.542C3.45214 47.3889 4.18871 48.0062 5.04623 47.997C5.90375 47.9879 6.62698 47.3549 6.75092 46.5052L7.33491 41.5996H9.02217C9.46339 41.5996 9.82106 41.2414 9.82106 40.7996C9.82106 40.3578 9.46339 39.9996 9.02217 39.9996H7.42439V24.09C8.05392 26.01 8.67865 28.25 10.6871 28.25C12.9032 28.2516 13.9657 25.4052 12.5301 23.6684ZM4.22883 15.9996C4.22883 15.5578 4.5865 15.1996 5.02772 15.1996C5.46893 15.1996 5.82661 15.5578 5.82661 15.9996V20.7996H4.22883V15.9996ZM5.82661 22.3996V39.9996H4.22883V22.3996H5.82661ZM5.16992 46.2796C5.14595 46.418 4.90389 46.382 4.89111 46.3164L4.33188 41.5964H5.72595L5.16992 46.2796ZM11.561 25.8108C11.4196 26.5732 10.6024 26.99 10.0703 26.2988C9.49799 25.3306 9.07411 24.2819 8.81286 23.1876L9.5782 23.5652C10.7046 24.11 11.7759 24.6332 11.557 25.8108H11.561Z" fill="#4D4242"/>
<path d="M47.3689 39.9996H45.7711V22.3996C46.2123 22.3996 46.57 22.0414 46.57 21.5996C46.57 21.1578 46.2123 20.7996 45.7711 20.7996V15.9996C45.7711 14.6741 44.6981 13.5996 43.3745 13.5996C42.0508 13.5996 40.9778 14.6741 40.9778 15.9996V20.7996C40.8072 20.7973 40.6399 20.8472 40.4985 20.9428C37.4395 22.4684 36.6118 22.7692 35.8697 23.6628C34.5867 25.2148 35.2777 27.7212 37.1623 28.1788C38.0814 28.3991 39.0424 28.0421 39.5957 27.2748C40.2316 26.2984 40.6988 25.2217 40.9778 24.09V39.9996H39.38C38.9388 39.9996 38.5811 40.3578 38.5811 40.7996C38.5811 41.2414 38.9388 41.5996 39.38 41.5996H41.0673L41.6568 46.542C41.7989 47.3889 42.5354 48.0062 43.393 47.997C44.2505 47.9879 44.9737 47.3549 45.0977 46.5052L45.6817 41.5996H47.3689C47.8101 41.5996 48.1678 41.2414 48.1678 40.7996C48.1678 40.3578 47.8101 39.9996 47.3689 39.9996ZM38.3359 26.2988C37.8062 26.9836 36.9873 26.5812 36.8451 25.81C36.5959 24.4708 37.9636 23.9908 39.5933 23.1876C39.3261 24.2799 38.9025 25.3278 38.3359 26.2988ZM44.1733 39.9996H42.5756V22.3996H44.1733V39.9996ZM43.3745 15.1996C43.8157 15.1996 44.1733 15.5578 44.1733 15.9996V20.7996H42.5756V15.9996C42.5756 15.5578 42.9332 15.1996 43.3745 15.1996ZM43.5167 46.2796C43.4927 46.418 43.2506 46.382 43.2378 46.3164L42.6786 41.5964H44.0751L43.5167 46.2796Z" fill="#4D4242"/>
<path d="M19.3192 9.6C20.5683 9.7355 21.7497 9.00422 22.1872 7.8248C22.2399 7.7232 22.2926 7.6184 22.3518 7.5144C22.7154 6.82964 23.4267 6.4017 24.2012 6.4017C24.9757 6.4017 25.687 6.82964 26.0506 7.5144C26.1097 7.6184 26.1625 7.7232 26.2152 7.8248C26.6527 9.00422 27.8341 9.7355 29.0832 9.6C31.7047 9.5723 33.8092 7.42515 33.7879 4.8V4H34.5868C35.028 4 35.3857 3.64183 35.3857 3.2C35.3857 2.75817 35.028 2.4 34.5868 2.4H33.7879V1.8C33.7927 0.812295 32.9983 0.00704623 32.0119 0H16.3904C15.4041 0.00704623 14.6096 0.812295 14.6145 1.8V2.4H13.8156C13.3744 2.4 13.0167 2.75817 13.0167 3.2C13.0167 3.64183 13.3744 4 13.8156 4H14.6145V4.8C14.5932 7.42515 16.6977 9.5723 19.3192 9.6ZM16.2123 1.8C16.2068 1.69568 16.2863 1.60644 16.3904 1.6H32.0119C32.1161 1.60644 32.1956 1.69568 32.1901 1.8V4.8C32.2123 6.54189 30.8226 7.97324 29.0832 8C27.9272 8 27.9688 7.68 27.4471 6.736C26.8003 5.5451 25.5549 4.80374 24.2012 4.80374C22.8474 4.80374 21.6021 5.5451 20.9553 6.736C20.4296 7.68 20.472 8 19.3192 8C17.5798 7.97324 16.1901 6.54189 16.2123 4.8V1.8Z" fill="#4D4242"/>
</g>
<defs>
<clipPath id="clip0">
<rect x="0.234375" width="47.9334" height="48" fill="white"/>
</clipPath>
</defs>
</svg>
