<svg width="160" height="45" viewBox="0 0 160 45" fill="none" xmlns="http://www.w3.org/2000/svg">
<path d="M115.6 13.2302C115.494 10.8391 115.108 9.19532 114.554 7.77094C113.982 6.25899 113.103 4.90534 111.951 3.78005C110.826 2.63724 109.463 1.74923 107.968 1.18676C106.535 0.632869 104.9 0.246211 102.508 0.14079C100.099 0.0264411 99.3338 0 93.2231 0C87.1123 0 86.3474 0.0264411 83.947 0.131862C81.5555 0.237283 79.9114 0.624285 78.4871 1.17783C76.9745 1.74923 75.6206 2.62831 74.4951 3.78005C73.352 4.90534 72.4642 6.26791 71.9013 7.76235C71.3473 9.19532 70.9606 10.8302 70.8551 13.2212C70.7407 15.6301 70.7143 16.3949 70.7143 22.5045C70.7143 28.6141 70.7407 29.3788 70.8462 31.7788C70.9516 34.1698 71.3387 35.8136 71.8927 37.238C72.4642 38.7499 73.352 40.1036 74.4951 41.2289C75.6206 42.3717 76.9834 43.2597 78.4781 43.8222C79.9114 44.3761 81.5466 44.7627 83.9384 44.8681C86.3385 44.9739 87.1037 45 93.2145 45C99.3252 45 100.09 44.9739 102.491 44.8681C104.882 44.7627 106.526 44.3761 107.95 43.8222C110.975 42.6529 113.367 40.2619 114.536 37.238C115.09 35.805 115.477 34.1698 115.582 31.7788C115.688 29.3788 115.714 28.6141 115.714 22.5045C115.714 16.3949 115.705 15.6301 115.6 13.2302ZM111.547 31.6029C111.45 33.8006 111.081 34.9874 110.773 35.7786C110.017 37.739 108.46 39.2949 106.5 40.051C105.708 40.3587 104.513 40.7279 102.323 40.8244C99.9493 40.9301 99.2373 40.9562 93.232 40.9562C87.2266 40.9562 86.5057 40.9301 84.1403 40.8244C81.9422 40.7279 80.7552 40.3587 79.9639 40.051C78.9882 39.6905 78.1 39.1191 77.3791 38.3719C76.6317 37.6422 76.0602 36.7631 75.6996 35.7875C75.3918 34.9963 75.0226 33.8006 74.9261 31.6119C74.8203 29.2384 74.7942 28.5262 74.7942 22.522C74.7942 16.5178 74.8203 15.797 74.9261 13.4324C75.0226 11.2347 75.3918 10.048 75.6996 9.25679C76.0602 8.28087 76.6317 7.39321 77.388 6.67208C78.1175 5.92487 78.9967 5.35346 79.9728 4.99325C80.7642 4.68557 81.9601 4.31642 84.1493 4.21959C86.5232 4.11417 87.2356 4.08772 93.2406 4.08772C99.2548 4.08772 99.9668 4.11417 102.332 4.21959C104.53 4.31642 105.717 4.68557 106.509 4.99325C107.484 5.35346 108.373 5.92487 109.093 6.67208C109.841 7.40179 110.412 8.28087 110.773 9.25679C111.081 10.048 111.45 11.2433 111.547 13.4324C111.652 15.8059 111.679 16.5178 111.679 22.522C111.679 28.5262 111.652 29.2294 111.547 31.6029Z" fill="#3378C7"/>
<path d="M93.2232 10.9453C86.8401 10.9453 81.6611 16.123 81.6611 22.5052C81.6611 28.8875 86.8401 34.0651 93.2232 34.0651C99.6067 34.0651 104.785 28.8875 104.785 22.5052C104.785 16.123 99.6067 10.9453 93.2232 10.9453ZM93.2232 30.0038C89.0821 30.0038 85.7231 26.6458 85.7231 22.5052C85.7231 18.3646 89.0821 15.0066 93.2232 15.0066C97.3646 15.0066 100.723 18.3646 100.723 22.5052C100.723 26.6458 97.3646 30.0038 93.2232 30.0038Z" fill="#3378C7"/>
<path d="M107.942 10.4868C107.942 11.9771 106.733 13.1855 105.242 13.1855C103.752 13.1855 102.543 11.9771 102.543 10.4868C102.543 8.99614 103.752 7.78809 105.242 7.78809C106.733 7.78809 107.942 8.99614 107.942 10.4868Z" fill="#3378C7"/>
<path d="M149.871 45H142.817C141.639 45 140.68 44.0208 140.68 42.8172V26.5629H136.565C135.387 26.5629 134.429 25.5834 134.429 24.38V17.415C134.429 16.2114 135.387 15.2322 136.565 15.2322H140.68V11.7444C140.68 8.28609 141.743 5.34382 143.754 3.23616C145.774 1.11889 148.596 0 151.916 0L157.296 0.00892635C158.472 0.0109863 159.429 0.990143 159.429 2.19177V8.6586C159.429 9.86229 158.47 10.8414 157.293 10.8414L153.671 10.8428C152.566 10.8428 152.285 11.0691 152.225 11.1384C152.126 11.2534 152.008 11.5786 152.008 12.4763V15.2319H157.02C157.398 15.2319 157.763 15.327 158.078 15.5062C158.755 15.8931 159.177 16.6247 159.177 17.4154L159.174 24.3804C159.174 25.5834 158.216 26.5625 157.038 26.5625H152.008V42.8172C152.008 44.0208 151.049 45 149.871 45ZM143.263 42.3619H149.425V25.3819C149.425 24.5781 150.065 23.9244 150.852 23.9244H156.592L156.594 17.8703H150.851C150.065 17.8703 149.425 17.2166 149.425 16.4129V12.4763C149.425 11.4457 149.528 10.2736 150.289 9.39262C151.209 8.32764 152.659 8.20473 153.67 8.20473L156.846 8.20335V2.64633L151.914 2.63809C146.578 2.63809 143.263 6.12762 143.263 11.7444V16.4129C143.263 17.2163 142.623 17.8703 141.836 17.8703H137.011V23.9244H141.836C142.623 23.9244 143.263 24.5781 143.263 25.3819V42.3619ZM157.291 2.64702H157.291H157.291Z" fill="#3378C7"/>
<path d="M19.5686 45C10.9851 45 4.20107 43.4107 0.955395 40.6403L0.892224 40.5863L0.834938 40.5255C0.063934 39.708 -0.188751 38.6355 0.142408 37.5835L0.17262 37.4961C0.574405 36.4312 1.55886 35.7142 2.62571 35.7076C4.8214 35.6673 6.74244 35.3899 8.48573 34.8514C5.70501 33.4808 3.77339 31.1075 2.62414 27.6727C2.23765 26.6015 2.57117 25.4138 3.46184 24.7057C3.68157 24.5306 3.92994 24.3984 4.19283 24.3098C2.64768 22.4194 1.50628 20.2682 0.867112 17.9931L0.847101 17.9224L0.833368 17.8501C0.616389 16.6995 1.10175 15.5164 1.99125 15.007C2.36439 14.7799 2.76971 14.6622 3.17659 14.6523C2.73792 13.6509 2.41893 12.6229 2.22981 11.5888C1.70482 8.72277 2.13799 5.84971 3.51678 3.04943L3.83577 2.37327C4.0912 1.83226 4.57931 1.45218 5.14197 1.35529C5.70462 1.25882 6.2814 1.45593 6.68437 1.883L7.26546 2.49969C11.8562 7.60041 15.9682 10.0206 23.0775 11.6765C23.3949 8.78431 24.5748 6.09589 26.4782 3.98009C28.7433 1.46258 31.7681 0.0499636 34.9953 0.00172592H35.0165C37.3711 0.00172592 40.2919 1.4264 42.0583 2.43108C43.5737 1.90545 45.3994 1.09165 47.2937 0.231271C48.1801 -0.209522 49.2728 -0.00783851 49.9697 0.730697C50.6528 1.45468 50.8423 2.47557 50.4797 3.46777C50.342 3.87405 50.1859 4.27284 50.012 4.6629C50.2714 4.7889 50.5088 4.95981 50.7093 5.17231C51.3155 5.81478 51.5682 6.82029 51.3528 7.73431L51.3296 7.82122C50.6037 10.3005 49.2093 12.3198 47.3651 13.5873C47.0571 30.9699 34.7061 45 19.5686 45ZM3.84754 38.8601C6.90605 40.694 12.7347 41.8034 19.5686 41.8034C26.1388 41.8034 32.339 38.8139 37.0266 33.3855C41.7527 27.9126 44.3553 20.645 44.3553 12.9211V12.8342C44.3553 12.1348 44.7186 11.4964 45.3032 11.1679C46.4894 10.5022 47.4499 9.36815 48.0745 7.91811C47.4303 8.02582 46.7754 7.75178 46.374 7.18041C45.9075 6.51631 45.9024 5.61934 46.3611 4.94942C46.6086 4.58763 46.8331 4.2113 47.0332 3.82207C45.3974 4.55021 43.844 5.20308 42.4954 5.6368C42.0054 5.79399 41.4592 5.73245 41.0115 5.46755C38.6106 4.04995 36.3745 3.20246 35.0263 3.1983C30.0515 3.27898 26.0066 7.79461 26.0066 13.2696C26.0066 13.8355 25.7696 14.3662 25.3572 14.7259C24.9444 15.0852 24.4076 15.229 23.8834 15.1193C15.6861 13.4076 10.8286 10.8411 5.77721 5.46132C5.05329 7.29976 4.85554 9.1515 5.19023 10.98C5.52963 12.8321 6.43247 14.688 7.80144 16.3468C8.32172 16.9764 8.39078 17.8771 7.9733 18.5878C7.55739 19.296 6.76676 19.627 6.00675 19.4112C5.4127 19.2423 4.86652 19.0207 4.3486 18.7358C5.40368 21.1648 7.21838 23.4111 9.49961 25.0679C10.1608 25.5482 10.437 26.4435 10.1717 27.2452C9.9061 28.0482 9.16413 28.5651 8.36213 28.5019C7.48833 28.4333 6.71419 28.2574 6.00165 27.9609C7.28077 30.7216 9.32461 32.2407 12.4734 32.8212C13.2232 32.9597 13.807 33.5872 13.9263 34.3827C14.046 35.1782 13.6744 35.9667 13.0023 36.3447C10.3185 37.8525 7.38514 38.6617 3.84754 38.8601Z" fill="#3378C7"/>
</svg>
